<?xml version="1.0" encoding="utf-8"?>
<svg xmlns="http://www.w3.org/2000/svg" xmlns:xlink="http://www.w3.org/1999/xlink" width="600" height="400" viewBox="0 0 2400 1600">
<defs>
  <clipPath id="clip600">
    <rect x="0" y="0" width="2400" height="1600"/>
  </clipPath>
</defs>
<path clip-path="url(#clip600)" d="M0 1600 L2400 1600 L2400 0 L0 0  Z" fill="#ffffff" fill-rule="evenodd" fill-opacity="1"/>
<defs>
  <clipPath id="clip601">
    <rect x="480" y="0" width="1681" height="1600"/>
  </clipPath>
</defs>
<path clip-path="url(#clip600)" d="M242.135 1423.18 L2352.76 1423.18 L2352.76 47.2441 L242.135 47.2441  Z" fill="#ffffff" fill-rule="evenodd" fill-opacity="1"/>
<defs>
  <clipPath id="clip602">
    <rect x="242" y="47" width="2112" height="1377"/>
  </clipPath>
</defs>
<polyline clip-path="url(#clip602)" style="stroke:#000000; stroke-linecap:round; stroke-linejoin:round; stroke-width:2; stroke-opacity:0.1; fill:none" points="279.497,1423.18 279.497,47.2441 "/>
<polyline clip-path="url(#clip602)" style="stroke:#000000; stroke-linecap:round; stroke-linejoin:round; stroke-width:2; stroke-opacity:0.1; fill:none" points="726.947,1423.18 726.947,47.2441 "/>
<polyline clip-path="url(#clip602)" style="stroke:#000000; stroke-linecap:round; stroke-linejoin:round; stroke-width:2; stroke-opacity:0.1; fill:none" points="1174.4,1423.18 1174.4,47.2441 "/>
<polyline clip-path="url(#clip602)" style="stroke:#000000; stroke-linecap:round; stroke-linejoin:round; stroke-width:2; stroke-opacity:0.1; fill:none" points="1621.85,1423.18 1621.85,47.2441 "/>
<polyline clip-path="url(#clip602)" style="stroke:#000000; stroke-linecap:round; stroke-linejoin:round; stroke-width:2; stroke-opacity:0.1; fill:none" points="2069.3,1423.18 2069.3,47.2441 "/>
<polyline clip-path="url(#clip600)" style="stroke:#000000; stroke-linecap:round; stroke-linejoin:round; stroke-width:4; stroke-opacity:1; fill:none" points="242.135,1423.18 2352.76,1423.18 "/>
<polyline clip-path="url(#clip600)" style="stroke:#000000; stroke-linecap:round; stroke-linejoin:round; stroke-width:4; stroke-opacity:1; fill:none" points="279.497,1423.18 279.497,1404.28 "/>
<polyline clip-path="url(#clip600)" style="stroke:#000000; stroke-linecap:round; stroke-linejoin:round; stroke-width:4; stroke-opacity:1; fill:none" points="726.947,1423.18 726.947,1404.28 "/>
<polyline clip-path="url(#clip600)" style="stroke:#000000; stroke-linecap:round; stroke-linejoin:round; stroke-width:4; stroke-opacity:1; fill:none" points="1174.4,1423.18 1174.4,1404.28 "/>
<polyline clip-path="url(#clip600)" style="stroke:#000000; stroke-linecap:round; stroke-linejoin:round; stroke-width:4; stroke-opacity:1; fill:none" points="1621.85,1423.18 1621.85,1404.28 "/>
<polyline clip-path="url(#clip600)" style="stroke:#000000; stroke-linecap:round; stroke-linejoin:round; stroke-width:4; stroke-opacity:1; fill:none" points="2069.3,1423.18 2069.3,1404.28 "/>
<path clip-path="url(#clip600)" d="M279.497 1454.1 Q275.886 1454.1 274.057 1457.66 Q272.251 1461.2 272.251 1468.33 Q272.251 1475.44 274.057 1479.01 Q275.886 1482.55 279.497 1482.55 Q283.131 1482.55 284.937 1479.01 Q286.765 1475.44 286.765 1468.33 Q286.765 1461.2 284.937 1457.66 Q283.131 1454.1 279.497 1454.1 M279.497 1450.39 Q285.307 1450.39 288.362 1455 Q291.441 1459.58 291.441 1468.33 Q291.441 1477.06 288.362 1481.67 Q285.307 1486.25 279.497 1486.25 Q273.687 1486.25 270.608 1481.67 Q267.552 1477.06 267.552 1468.33 Q267.552 1459.58 270.608 1455 Q273.687 1450.39 279.497 1450.39 Z" fill="#000000" fill-rule="nonzero" fill-opacity="1" /><path clip-path="url(#clip600)" d="M705.72 1481.64 L722.039 1481.64 L722.039 1485.58 L700.095 1485.58 L700.095 1481.64 Q702.757 1478.89 707.34 1474.26 Q711.947 1469.61 713.127 1468.27 Q715.373 1465.74 716.252 1464.01 Q717.155 1462.25 717.155 1460.56 Q717.155 1457.8 715.211 1456.07 Q713.289 1454.33 710.187 1454.33 Q707.988 1454.33 705.535 1455.09 Q703.104 1455.86 700.326 1457.41 L700.326 1452.69 Q703.15 1451.55 705.604 1450.97 Q708.058 1450.39 710.095 1450.39 Q715.465 1450.39 718.66 1453.08 Q721.854 1455.77 721.854 1460.26 Q721.854 1462.39 721.044 1464.31 Q720.257 1466.2 718.15 1468.8 Q717.572 1469.47 714.47 1472.69 Q711.368 1475.88 705.72 1481.64 Z" fill="#000000" fill-rule="nonzero" fill-opacity="1" /><path clip-path="url(#clip600)" d="M741.854 1454.1 Q738.243 1454.1 736.414 1457.66 Q734.609 1461.2 734.609 1468.33 Q734.609 1475.44 736.414 1479.01 Q738.243 1482.55 741.854 1482.55 Q745.488 1482.55 747.294 1479.01 Q749.122 1475.44 749.122 1468.33 Q749.122 1461.2 747.294 1457.66 Q745.488 1454.1 741.854 1454.1 M741.854 1450.39 Q747.664 1450.39 750.72 1455 Q753.798 1459.58 753.798 1468.33 Q753.798 1477.06 750.72 1481.67 Q747.664 1486.25 741.854 1486.25 Q736.044 1486.25 732.965 1481.67 Q729.91 1477.06 729.91 1468.33 Q729.91 1459.58 732.965 1455 Q736.044 1450.39 741.854 1450.39 Z" fill="#000000" fill-rule="nonzero" fill-opacity="1" /><path clip-path="url(#clip600)" d="M1162.57 1455.09 L1150.76 1473.54 L1162.57 1473.54 L1162.57 1455.09 M1161.34 1451.02 L1167.22 1451.02 L1167.22 1473.54 L1172.15 1473.54 L1172.15 1477.43 L1167.22 1477.43 L1167.22 1485.58 L1162.57 1485.58 L1162.57 1477.43 L1146.97 1477.43 L1146.97 1472.92 L1161.34 1451.02 Z" fill="#000000" fill-rule="nonzero" fill-opacity="1" /><path clip-path="url(#clip600)" d="M1189.88 1454.1 Q1186.27 1454.1 1184.44 1457.66 Q1182.64 1461.2 1182.64 1468.33 Q1182.64 1475.44 1184.44 1479.01 Q1186.27 1482.55 1189.88 1482.55 Q1193.52 1482.55 1195.32 1479.01 Q1197.15 1475.44 1197.15 1468.33 Q1197.15 1461.2 1195.32 1457.66 Q1193.52 1454.1 1189.88 1454.1 M1189.88 1450.39 Q1195.69 1450.39 1198.75 1455 Q1201.83 1459.58 1201.83 1468.33 Q1201.83 1477.06 1198.75 1481.67 Q1195.69 1486.25 1189.88 1486.25 Q1184.07 1486.25 1180.99 1481.67 Q1177.94 1477.06 1177.94 1468.33 Q1177.94 1459.58 1180.99 1455 Q1184.07 1450.39 1189.88 1450.39 Z" fill="#000000" fill-rule="nonzero" fill-opacity="1" /><path clip-path="url(#clip600)" d="M1607.25 1466.44 Q1604.1 1466.44 1602.25 1468.59 Q1600.42 1470.74 1600.42 1474.49 Q1600.42 1478.22 1602.25 1480.39 Q1604.1 1482.55 1607.25 1482.55 Q1610.4 1482.55 1612.23 1480.39 Q1614.08 1478.22 1614.08 1474.49 Q1614.08 1470.74 1612.23 1468.59 Q1610.4 1466.44 1607.25 1466.44 M1616.53 1451.78 L1616.53 1456.04 Q1614.77 1455.21 1612.97 1454.77 Q1611.19 1454.33 1609.43 1454.33 Q1604.8 1454.33 1602.34 1457.45 Q1599.91 1460.58 1599.57 1466.9 Q1600.93 1464.89 1602.99 1463.82 Q1605.05 1462.73 1607.53 1462.73 Q1612.74 1462.73 1615.75 1465.9 Q1618.78 1469.05 1618.78 1474.49 Q1618.78 1479.82 1615.63 1483.03 Q1612.48 1486.25 1607.25 1486.25 Q1601.26 1486.25 1598.09 1481.67 Q1594.91 1477.06 1594.91 1468.33 Q1594.91 1460.14 1598.8 1455.28 Q1602.69 1450.39 1609.24 1450.39 Q1611 1450.39 1612.78 1450.74 Q1614.59 1451.09 1616.53 1451.78 Z" fill="#000000" fill-rule="nonzero" fill-opacity="1" /><path clip-path="url(#clip600)" d="M1636.83 1454.1 Q1633.22 1454.1 1631.4 1457.66 Q1629.59 1461.2 1629.59 1468.33 Q1629.59 1475.44 1631.4 1479.01 Q1633.22 1482.55 1636.83 1482.55 Q1640.47 1482.55 1642.27 1479.01 Q1644.1 1475.44 1644.1 1468.33 Q1644.1 1461.2 1642.27 1457.66 Q1640.47 1454.1 1636.83 1454.1 M1636.83 1450.39 Q1642.64 1450.39 1645.7 1455 Q1648.78 1459.58 1648.78 1468.33 Q1648.78 1477.06 1645.7 1481.67 Q1642.64 1486.25 1636.83 1486.25 Q1631.02 1486.25 1627.95 1481.67 Q1624.89 1477.06 1624.89 1468.33 Q1624.89 1459.58 1627.95 1455 Q1631.02 1450.39 1636.83 1450.39 Z" fill="#000000" fill-rule="nonzero" fill-opacity="1" /><path clip-path="url(#clip600)" d="M2054.17 1469.17 Q2050.84 1469.17 2048.91 1470.95 Q2047.02 1472.73 2047.02 1475.86 Q2047.02 1478.98 2048.91 1480.77 Q2050.84 1482.55 2054.17 1482.55 Q2057.5 1482.55 2059.42 1480.77 Q2061.35 1478.96 2061.35 1475.86 Q2061.35 1472.73 2059.42 1470.95 Q2057.53 1469.17 2054.17 1469.17 M2049.49 1467.18 Q2046.48 1466.44 2044.79 1464.38 Q2043.13 1462.32 2043.13 1459.35 Q2043.13 1455.21 2046.07 1452.8 Q2049.03 1450.39 2054.17 1450.39 Q2059.33 1450.39 2062.27 1452.8 Q2065.21 1455.21 2065.21 1459.35 Q2065.21 1462.32 2063.52 1464.38 Q2061.85 1466.44 2058.87 1467.18 Q2062.25 1467.96 2064.12 1470.26 Q2066.02 1472.55 2066.02 1475.86 Q2066.02 1480.88 2062.94 1483.57 Q2059.89 1486.25 2054.17 1486.25 Q2048.45 1486.25 2045.37 1483.57 Q2042.32 1480.88 2042.32 1475.86 Q2042.32 1472.55 2044.22 1470.26 Q2046.11 1467.96 2049.49 1467.18 M2047.78 1459.79 Q2047.78 1462.48 2049.45 1463.98 Q2051.14 1465.49 2054.17 1465.49 Q2057.18 1465.49 2058.87 1463.98 Q2060.58 1462.48 2060.58 1459.79 Q2060.58 1457.11 2058.87 1455.6 Q2057.18 1454.1 2054.17 1454.1 Q2051.14 1454.1 2049.45 1455.6 Q2047.78 1457.11 2047.78 1459.79 Z" fill="#000000" fill-rule="nonzero" fill-opacity="1" /><path clip-path="url(#clip600)" d="M2084.33 1454.1 Q2080.72 1454.1 2078.89 1457.66 Q2077.09 1461.2 2077.09 1468.33 Q2077.09 1475.44 2078.89 1479.01 Q2080.72 1482.55 2084.33 1482.55 Q2087.97 1482.55 2089.77 1479.01 Q2091.6 1475.44 2091.6 1468.33 Q2091.6 1461.2 2089.77 1457.66 Q2087.97 1454.1 2084.33 1454.1 M2084.33 1450.39 Q2090.14 1450.39 2093.2 1455 Q2096.28 1459.58 2096.28 1468.33 Q2096.28 1477.06 2093.2 1481.67 Q2090.14 1486.25 2084.33 1486.25 Q2078.52 1486.25 2075.44 1481.67 Q2072.39 1477.06 2072.39 1468.33 Q2072.39 1459.58 2075.44 1455 Q2078.52 1450.39 2084.33 1450.39 Z" fill="#000000" fill-rule="nonzero" fill-opacity="1" /><path clip-path="url(#clip600)" d="M1310.28 1536.84 Q1310.28 1538.67 1309.16 1539.77 Q1308.06 1540.86 1306.68 1540.86 Q1305.45 1540.86 1304.81 1540.15 Q1304.16 1539.45 1304.16 1538.54 Q1304.16 1538.16 1304.32 1537.67 Q1304.49 1537.16 1304.84 1536.55 Q1305.23 1535.94 1306.03 1535.48 Q1306.84 1535.03 1307.93 1534.97 Q1307.71 1534.74 1307.64 1534.71 Q1307.16 1534.32 1306.26 1534.2 Q1306.13 1534.13 1305.68 1534.13 Q1303.45 1534.13 1301.2 1535.77 Q1298.98 1537.38 1296.24 1540.44 Q1292.79 1544.02 1290.57 1545.34 Q1300.33 1546.63 1300.33 1552.26 Q1300.33 1553.2 1300.07 1554.32 Q1299.56 1556.45 1299.56 1558 Q1299.56 1561.09 1301.65 1561.09 Q1303.68 1561.09 1304.97 1559.03 Q1306.29 1556.97 1307.38 1552.94 Q1307.54 1552.2 1307.71 1551.97 Q1307.87 1551.75 1308.32 1551.75 Q1309.12 1551.75 1309.12 1552.39 Q1308.38 1556.16 1306.74 1559.06 Q1304.65 1562.57 1301.52 1562.57 Q1298.91 1562.57 1297.17 1560.77 Q1295.47 1558.93 1295.47 1556.03 Q1295.47 1555.32 1295.73 1553.71 Q1295.92 1553.07 1295.92 1552.33 Q1295.92 1550.81 1295.08 1549.69 Q1294.24 1548.53 1292.89 1547.95 Q1291.54 1547.37 1290.41 1547.11 Q1289.32 1546.82 1288.25 1546.72 Q1285.03 1560.35 1284.58 1561.18 Q1284.29 1561.76 1283.65 1562.15 Q1283 1562.57 1282.33 1562.57 Q1281.68 1562.57 1281.04 1562.12 Q1280.43 1561.7 1280.43 1560.7 Q1280.43 1560.19 1280.69 1559.25 L1290.25 1521.25 L1290.44 1519.96 Q1290.44 1519.57 1290.28 1519.38 Q1290.15 1519.16 1289.38 1518.99 Q1288.64 1518.83 1287.16 1518.83 Q1286.55 1518.83 1286.26 1518.8 Q1286 1518.77 1285.77 1518.61 Q1285.55 1518.42 1285.55 1518.03 Q1285.55 1517.48 1285.77 1517.19 Q1286.03 1516.87 1286.22 1516.8 Q1286.42 1516.74 1286.8 1516.71 Q1287.35 1516.68 1289.19 1516.52 Q1291.02 1516.32 1292.6 1516.19 Q1294.18 1516.06 1294.86 1516.06 Q1295.24 1516.06 1295.44 1516.26 Q1295.66 1516.42 1295.69 1516.61 L1295.73 1516.77 L1288.87 1544.6 Q1291.7 1543.47 1296.18 1538.48 Q1301.36 1532.68 1305.81 1532.68 Q1307.9 1532.68 1309.09 1533.97 Q1310.28 1535.23 1310.28 1536.84 Z" fill="#000000" fill-rule="nonzero" fill-opacity="1" /><polyline clip-path="url(#clip602)" style="stroke:#000000; stroke-linecap:round; stroke-linejoin:round; stroke-width:2; stroke-opacity:0.1; fill:none" points="242.135,1345.49 2352.76,1345.49 "/>
<polyline clip-path="url(#clip602)" style="stroke:#000000; stroke-linecap:round; stroke-linejoin:round; stroke-width:2; stroke-opacity:0.1; fill:none" points="242.135,1151.75 2352.76,1151.75 "/>
<polyline clip-path="url(#clip602)" style="stroke:#000000; stroke-linecap:round; stroke-linejoin:round; stroke-width:2; stroke-opacity:0.1; fill:none" points="242.135,958.012 2352.76,958.012 "/>
<polyline clip-path="url(#clip602)" style="stroke:#000000; stroke-linecap:round; stroke-linejoin:round; stroke-width:2; stroke-opacity:0.1; fill:none" points="242.135,764.273 2352.76,764.273 "/>
<polyline clip-path="url(#clip602)" style="stroke:#000000; stroke-linecap:round; stroke-linejoin:round; stroke-width:2; stroke-opacity:0.1; fill:none" points="242.135,570.534 2352.76,570.534 "/>
<polyline clip-path="url(#clip602)" style="stroke:#000000; stroke-linecap:round; stroke-linejoin:round; stroke-width:2; stroke-opacity:0.1; fill:none" points="242.135,376.794 2352.76,376.794 "/>
<polyline clip-path="url(#clip602)" style="stroke:#000000; stroke-linecap:round; stroke-linejoin:round; stroke-width:2; stroke-opacity:0.1; fill:none" points="242.135,183.055 2352.76,183.055 "/>
<polyline clip-path="url(#clip600)" style="stroke:#000000; stroke-linecap:round; stroke-linejoin:round; stroke-width:4; stroke-opacity:1; fill:none" points="242.135,1423.18 242.135,47.2441 "/>
<polyline clip-path="url(#clip600)" style="stroke:#000000; stroke-linecap:round; stroke-linejoin:round; stroke-width:4; stroke-opacity:1; fill:none" points="242.135,1345.49 261.032,1345.49 "/>
<polyline clip-path="url(#clip600)" style="stroke:#000000; stroke-linecap:round; stroke-linejoin:round; stroke-width:4; stroke-opacity:1; fill:none" points="242.135,1151.75 261.032,1151.75 "/>
<polyline clip-path="url(#clip600)" style="stroke:#000000; stroke-linecap:round; stroke-linejoin:round; stroke-width:4; stroke-opacity:1; fill:none" points="242.135,958.012 261.032,958.012 "/>
<polyline clip-path="url(#clip600)" style="stroke:#000000; stroke-linecap:round; stroke-linejoin:round; stroke-width:4; stroke-opacity:1; fill:none" points="242.135,764.273 261.032,764.273 "/>
<polyline clip-path="url(#clip600)" style="stroke:#000000; stroke-linecap:round; stroke-linejoin:round; stroke-width:4; stroke-opacity:1; fill:none" points="242.135,570.534 261.032,570.534 "/>
<polyline clip-path="url(#clip600)" style="stroke:#000000; stroke-linecap:round; stroke-linejoin:round; stroke-width:4; stroke-opacity:1; fill:none" points="242.135,376.794 261.032,376.794 "/>
<polyline clip-path="url(#clip600)" style="stroke:#000000; stroke-linecap:round; stroke-linejoin:round; stroke-width:4; stroke-opacity:1; fill:none" points="242.135,183.055 261.032,183.055 "/>
<path clip-path="url(#clip600)" d="M114.26 1345.94 L143.936 1345.94 L143.936 1349.88 L114.26 1349.88 L114.26 1345.94 Z" fill="#000000" fill-rule="nonzero" fill-opacity="1" /><path clip-path="url(#clip600)" d="M154.839 1358.84 L162.477 1358.84 L162.477 1332.47 L154.167 1334.14 L154.167 1329.88 L162.431 1328.21 L167.107 1328.21 L167.107 1358.84 L174.746 1358.84 L174.746 1362.77 L154.839 1362.77 L154.839 1358.84 Z" fill="#000000" fill-rule="nonzero" fill-opacity="1" /><path clip-path="url(#clip600)" d="M194.19 1331.29 Q190.579 1331.29 188.75 1334.85 Q186.945 1338.4 186.945 1345.53 Q186.945 1352.63 188.75 1356.2 Q190.579 1359.74 194.19 1359.74 Q197.825 1359.74 199.63 1356.2 Q201.459 1352.63 201.459 1345.53 Q201.459 1338.4 199.63 1334.85 Q197.825 1331.29 194.19 1331.29 M194.19 1327.59 Q200 1327.59 203.056 1332.19 Q206.135 1336.78 206.135 1345.53 Q206.135 1354.25 203.056 1358.86 Q200 1363.44 194.19 1363.44 Q188.38 1363.44 185.301 1358.86 Q182.246 1354.25 182.246 1345.53 Q182.246 1336.78 185.301 1332.19 Q188.38 1327.59 194.19 1327.59 Z" fill="#000000" fill-rule="nonzero" fill-opacity="1" /><path clip-path="url(#clip600)" d="M194.19 1137.55 Q190.579 1137.55 188.75 1141.11 Q186.945 1144.66 186.945 1151.79 Q186.945 1158.89 188.75 1162.46 Q190.579 1166 194.19 1166 Q197.825 1166 199.63 1162.46 Q201.459 1158.89 201.459 1151.79 Q201.459 1144.66 199.63 1141.11 Q197.825 1137.55 194.19 1137.55 M194.19 1133.85 Q200 1133.85 203.056 1138.45 Q206.135 1143.04 206.135 1151.79 Q206.135 1160.51 203.056 1165.12 Q200 1169.7 194.19 1169.7 Q188.38 1169.7 185.301 1165.12 Q182.246 1160.51 182.246 1151.79 Q182.246 1143.04 185.301 1138.45 Q188.38 1133.85 194.19 1133.85 Z" fill="#000000" fill-rule="nonzero" fill-opacity="1" /><path clip-path="url(#clip600)" d="M154.839 971.357 L162.477 971.357 L162.477 944.991 L154.167 946.658 L154.167 942.399 L162.431 940.732 L167.107 940.732 L167.107 971.357 L174.746 971.357 L174.746 975.292 L154.839 975.292 L154.839 971.357 Z" fill="#000000" fill-rule="nonzero" fill-opacity="1" /><path clip-path="url(#clip600)" d="M194.19 943.811 Q190.579 943.811 188.75 947.376 Q186.945 950.917 186.945 958.047 Q186.945 965.153 188.75 968.718 Q190.579 972.26 194.19 972.26 Q197.825 972.26 199.63 968.718 Q201.459 965.153 201.459 958.047 Q201.459 950.917 199.63 947.376 Q197.825 943.811 194.19 943.811 M194.19 940.107 Q200 940.107 203.056 944.714 Q206.135 949.297 206.135 958.047 Q206.135 966.774 203.056 971.38 Q200 975.963 194.19 975.963 Q188.38 975.963 185.301 971.38 Q182.246 966.774 182.246 958.047 Q182.246 949.297 185.301 944.714 Q188.38 940.107 194.19 940.107 Z" fill="#000000" fill-rule="nonzero" fill-opacity="1" /><path clip-path="url(#clip600)" d="M158.056 777.618 L174.376 777.618 L174.376 781.553 L152.431 781.553 L152.431 777.618 Q155.093 774.863 159.677 770.233 Q164.283 765.581 165.464 764.238 Q167.709 761.715 168.589 759.979 Q169.491 758.22 169.491 756.53 Q169.491 753.775 167.547 752.039 Q165.626 750.303 162.524 750.303 Q160.325 750.303 157.871 751.067 Q155.44 751.831 152.663 753.382 L152.663 748.66 Q155.487 747.525 157.94 746.947 Q160.394 746.368 162.431 746.368 Q167.802 746.368 170.996 749.053 Q174.19 751.738 174.19 756.229 Q174.19 758.359 173.38 760.28 Q172.593 762.178 170.487 764.771 Q169.908 765.442 166.806 768.659 Q163.704 771.854 158.056 777.618 Z" fill="#000000" fill-rule="nonzero" fill-opacity="1" /><path clip-path="url(#clip600)" d="M194.19 750.072 Q190.579 750.072 188.75 753.636 Q186.945 757.178 186.945 764.308 Q186.945 771.414 188.75 774.979 Q190.579 778.52 194.19 778.52 Q197.825 778.52 199.63 774.979 Q201.459 771.414 201.459 764.308 Q201.459 757.178 199.63 753.636 Q197.825 750.072 194.19 750.072 M194.19 746.368 Q200 746.368 203.056 750.974 Q206.135 755.558 206.135 764.308 Q206.135 773.034 203.056 777.641 Q200 782.224 194.19 782.224 Q188.38 782.224 185.301 777.641 Q182.246 773.034 182.246 764.308 Q182.246 755.558 185.301 750.974 Q188.38 746.368 194.19 746.368 Z" fill="#000000" fill-rule="nonzero" fill-opacity="1" /><path clip-path="url(#clip600)" d="M168.195 569.179 Q171.552 569.897 173.427 572.166 Q175.325 574.434 175.325 577.767 Q175.325 582.883 171.806 585.684 Q168.288 588.485 161.806 588.485 Q159.63 588.485 157.315 588.045 Q155.024 587.628 152.57 586.772 L152.57 582.258 Q154.515 583.392 156.829 583.971 Q159.144 584.55 161.667 584.55 Q166.065 584.55 168.357 582.814 Q170.672 581.078 170.672 577.767 Q170.672 574.712 168.519 572.999 Q166.39 571.263 162.57 571.263 L158.542 571.263 L158.542 567.42 L162.755 567.42 Q166.204 567.42 168.033 566.055 Q169.862 564.666 169.862 562.073 Q169.862 559.411 167.964 557.999 Q166.089 556.564 162.57 556.564 Q160.649 556.564 158.45 556.98 Q156.251 557.397 153.612 558.277 L153.612 554.11 Q156.274 553.369 158.589 552.999 Q160.927 552.629 162.987 552.629 Q168.311 552.629 171.413 555.059 Q174.514 557.467 174.514 561.587 Q174.514 564.457 172.871 566.448 Q171.227 568.416 168.195 569.179 Z" fill="#000000" fill-rule="nonzero" fill-opacity="1" /><path clip-path="url(#clip600)" d="M194.19 556.332 Q190.579 556.332 188.75 559.897 Q186.945 563.439 186.945 570.568 Q186.945 577.675 188.75 581.24 Q190.579 584.781 194.19 584.781 Q197.825 584.781 199.63 581.24 Q201.459 577.675 201.459 570.568 Q201.459 563.439 199.63 559.897 Q197.825 556.332 194.19 556.332 M194.19 552.629 Q200 552.629 203.056 557.235 Q206.135 561.818 206.135 570.568 Q206.135 579.295 203.056 583.902 Q200 588.485 194.19 588.485 Q188.38 588.485 185.301 583.902 Q182.246 579.295 182.246 570.568 Q182.246 561.818 185.301 557.235 Q188.38 552.629 194.19 552.629 Z" fill="#000000" fill-rule="nonzero" fill-opacity="1" /><path clip-path="url(#clip600)" d="M166.876 363.589 L155.07 382.037 L166.876 382.037 L166.876 363.589 M165.649 359.514 L171.528 359.514 L171.528 382.037 L176.459 382.037 L176.459 385.926 L171.528 385.926 L171.528 394.074 L166.876 394.074 L166.876 385.926 L151.274 385.926 L151.274 381.412 L165.649 359.514 Z" fill="#000000" fill-rule="nonzero" fill-opacity="1" /><path clip-path="url(#clip600)" d="M194.19 362.593 Q190.579 362.593 188.75 366.158 Q186.945 369.7 186.945 376.829 Q186.945 383.936 188.75 387.5 Q190.579 391.042 194.19 391.042 Q197.825 391.042 199.63 387.5 Q201.459 383.936 201.459 376.829 Q201.459 369.7 199.63 366.158 Q197.825 362.593 194.19 362.593 M194.19 358.889 Q200 358.889 203.056 363.496 Q206.135 368.079 206.135 376.829 Q206.135 385.556 203.056 390.162 Q200 394.746 194.19 394.746 Q188.38 394.746 185.301 390.162 Q182.246 385.556 182.246 376.829 Q182.246 368.079 185.301 363.496 Q188.38 358.889 194.19 358.889 Z" fill="#000000" fill-rule="nonzero" fill-opacity="1" /><path clip-path="url(#clip600)" d="M154.075 165.775 L172.431 165.775 L172.431 169.71 L158.357 169.71 L158.357 178.183 Q159.376 177.835 160.394 177.673 Q161.413 177.488 162.431 177.488 Q168.218 177.488 171.598 180.659 Q174.977 183.831 174.977 189.247 Q174.977 194.826 171.505 197.928 Q168.033 201.007 161.714 201.007 Q159.538 201.007 157.269 200.636 Q155.024 200.266 152.616 199.525 L152.616 194.826 Q154.7 195.96 156.922 196.516 Q159.144 197.071 161.621 197.071 Q165.626 197.071 167.964 194.965 Q170.302 192.858 170.302 189.247 Q170.302 185.636 167.964 183.53 Q165.626 181.423 161.621 181.423 Q159.746 181.423 157.871 181.84 Q156.019 182.257 154.075 183.136 L154.075 165.775 Z" fill="#000000" fill-rule="nonzero" fill-opacity="1" /><path clip-path="url(#clip600)" d="M194.19 168.854 Q190.579 168.854 188.75 172.419 Q186.945 175.96 186.945 183.09 Q186.945 190.196 188.75 193.761 Q190.579 197.303 194.19 197.303 Q197.825 197.303 199.63 193.761 Q201.459 190.196 201.459 183.09 Q201.459 175.96 199.63 172.419 Q197.825 168.854 194.19 168.854 M194.19 165.15 Q200 165.15 203.056 169.757 Q206.135 174.34 206.135 183.09 Q206.135 191.817 203.056 196.423 Q200 201.007 194.19 201.007 Q188.38 201.007 185.301 196.423 Q182.246 191.817 182.246 183.09 Q182.246 174.34 185.301 169.757 Q188.38 165.15 194.19 165.15 Z" fill="#000000" fill-rule="nonzero" fill-opacity="1" /><path clip-path="url(#clip600)" d="M29.244 736.014 Q31.0475 736.014 32.0781 737.142 Q33.0765 738.269 33.0765 739.557 Q33.0765 740.781 32.368 741.425 Q31.6595 742.069 30.7577 742.069 Q29.5339 742.069 28.4711 741.167 Q27.4083 740.266 27.1828 738.913 Q26.3455 740.233 26.3455 742.198 Q26.3455 743.486 27.0218 744.613 Q27.6981 745.708 28.5677 746.385 Q29.4373 747.029 30.6933 747.609 Q31.9171 748.156 32.6578 748.382 Q33.3664 748.575 34.1393 748.736 L43.157 750.99 Q47.4403 752.085 48.954 752.085 Q50.8219 752.085 52.078 751.183 Q53.3018 750.282 53.3018 748.478 Q53.3018 747.77 53.1086 746.964 Q52.8831 746.159 52.3034 745.129 Q51.6915 744.066 50.7897 743.132 Q49.8558 742.166 48.2777 741.232 Q46.6996 740.298 44.6706 739.686 Q43.9621 739.493 43.9621 738.849 Q43.9621 738.043 44.6062 738.043 Q45.1537 738.043 46.3131 738.494 Q47.4403 738.913 48.9218 739.847 Q50.3711 740.749 51.6915 741.94 Q52.9797 743.132 53.8815 744.903 Q54.7833 746.675 54.7833 748.607 Q54.7833 751.377 53.3018 753.212 Q51.8203 755.048 49.7592 755.724 Q50.049 755.886 50.4355 756.111 Q50.8219 756.336 51.6915 757.013 Q52.5289 757.657 53.173 758.398 Q53.7849 759.138 54.268 760.298 Q54.7833 761.425 54.7833 762.649 Q54.7833 764.195 54.3324 765.579 Q53.8815 766.932 52.8509 767.898 Q51.8203 768.864 50.4033 768.864 Q48.8252 768.864 47.7302 767.802 Q46.603 766.707 46.603 765.225 Q46.603 764.291 47.1505 763.551 Q47.698 762.778 48.8896 762.778 Q50.21 762.778 51.2084 763.679 Q52.2068 764.581 52.4644 765.869 Q53.3018 764.549 53.3018 762.584 Q53.3018 760.459 51.4339 758.784 Q49.5659 757.109 46.4419 756.304 Q38.938 754.307 35.5886 753.534 Q32.207 752.762 30.7577 752.762 Q29.405 752.762 28.4711 753.116 Q27.5371 753.47 27.1184 754.082 Q26.6676 754.662 26.5065 755.209 Q26.3455 755.724 26.3455 756.304 Q26.3455 757.27 26.732 758.365 Q27.1184 759.428 28.0202 760.716 Q28.8898 761.972 30.6933 763.164 Q32.4968 764.356 34.9767 765.161 Q35.7174 765.322 35.7174 766.03 Q35.6852 766.803 35.0411 766.803 Q34.4936 766.803 33.3664 766.385 Q32.207 765.934 30.7577 765.032 Q29.3084 764.098 28.0202 762.906 Q26.6998 761.683 25.798 759.911 Q24.8962 758.108 24.8962 756.175 Q24.8962 755.306 25.0895 754.468 Q25.2505 753.599 25.7336 752.568 Q26.2167 751.506 27.2795 750.572 Q28.3423 749.638 29.8881 749.058 Q29.1474 748.671 28.4389 748.156 Q27.7303 747.609 26.8608 746.771 Q25.959 745.902 25.4437 744.71 Q24.8962 743.486 24.8962 742.134 Q24.8962 740.813 25.2505 739.525 Q25.5726 738.237 26.6353 737.142 Q27.6659 736.014 29.244 736.014 Z" fill="#000000" fill-rule="nonzero" fill-opacity="1" /><path clip-path="url(#clip600)" d="M56.3205 708.395 Q57.6055 708.395 58.372 709.184 Q59.1385 709.95 59.1385 710.92 Q59.1385 711.776 58.6425 712.227 Q58.1466 712.678 57.5153 712.678 Q57.2448 712.678 56.9066 712.565 Q56.5459 712.453 56.1176 712.205 Q55.6893 711.934 55.3736 711.371 Q55.058 710.807 55.0129 710.041 Q54.8551 710.198 54.8326 710.243 Q54.5621 710.582 54.4719 711.213 Q54.4268 711.303 54.4268 711.619 Q54.4268 713.174 55.5765 714.752 Q56.7037 716.308 58.8454 718.224 Q61.3478 720.636 62.2721 722.192 Q63.1739 715.361 67.1191 715.361 Q67.7729 715.361 68.5619 715.541 Q70.0499 715.902 71.132 715.902 Q73.2962 715.902 73.2962 714.437 Q73.2962 713.016 71.8534 712.115 Q70.4106 711.19 67.5925 710.424 Q67.074 710.311 66.9162 710.198 Q66.7584 710.086 66.7584 709.77 Q66.7584 709.206 67.2093 709.206 Q69.847 709.725 71.8759 710.875 Q74.3332 712.34 74.3332 714.527 Q74.3332 716.353 73.0708 717.57 Q71.7858 718.765 69.7568 718.765 Q69.2608 718.765 68.1336 718.585 Q67.6827 718.45 67.1642 718.45 Q66.1046 718.45 65.3156 719.036 Q64.504 719.622 64.0982 720.569 Q63.6924 721.516 63.5121 722.305 Q63.3092 723.071 63.2415 723.815 Q72.7777 726.069 73.3638 726.385 Q73.7696 726.588 74.0402 727.039 Q74.3332 727.49 74.3332 727.963 Q74.3332 728.414 74.0176 728.865 Q73.7245 729.293 73.0257 729.293 Q72.665 729.293 72.0112 729.113 L45.4092 722.417 L44.5074 722.282 Q44.2369 722.282 44.1016 722.395 Q43.9438 722.485 43.8311 723.026 Q43.7183 723.544 43.7183 724.582 Q43.7183 725.01 43.6958 725.213 Q43.6733 725.393 43.5605 725.551 Q43.4253 725.709 43.1547 725.709 Q42.7715 725.709 42.5686 725.551 Q42.3432 725.371 42.2981 725.235 Q42.253 725.1 42.2304 724.829 Q42.2079 724.446 42.0952 723.161 Q41.9599 721.876 41.8697 720.772 Q41.7795 719.667 41.7795 719.193 Q41.7795 718.923 41.9148 718.788 Q42.0275 718.63 42.1628 718.607 L42.2755 718.585 L61.7536 723.387 Q60.9646 721.403 57.4702 718.269 Q53.4123 714.64 53.4123 711.528 Q53.4123 710.063 54.3141 709.229 Q55.1933 708.395 56.3205 708.395 Z" fill="#000000" fill-rule="nonzero" fill-opacity="1" /><polyline clip-path="url(#clip602)" style="stroke:#009af9; stroke-linecap:round; stroke-linejoin:round; stroke-width:4; stroke-opacity:1; fill:none" points="301.869,1132.38 324.242,1093.63 346.614,1054.88 368.987,1016.13 391.359,977.386 413.732,938.638 436.104,899.89 458.477,861.142 480.849,822.395 503.222,783.647 525.594,744.899 547.967,1345.49 570.339,667.403 592.712,628.655 615.084,589.908 637.457,551.16 659.829,512.412 682.202,473.664 704.574,434.916 726.947,396.168 749.319,1026.46 771.692,1018.94 794.064,1013.3 816.437,1009.9 838.809,1009.05 861.182,1010.99 883.554,1015.85 905.927,1023.61 928.299,1034.03 950.672,1046.66 973.044,1060.75 995.417,1075.28 1017.79,1088.96 1040.16,1100.26 1062.53,1107.52 1084.91,1109.05 1107.28,1103.32 1129.65,1089.15 1152.02,1065.98 1174.4,1033.99 1196.77,994.382 1219.14,949.362 1241.51,902.155 1263.89,856.769 1286.26,817.617 1308.63,788.949 1331,774.182 1353.38,775.188 1375.75,791.68 1398.12,1384.24 1420.49,1384.24 1442.87,1384.24 1465.24,922.486 1487.61,935.173 1509.98,926.629 1532.36,895.192 1554.73,843.956 1577.1,780.808 1599.47,717.271 1621.85,666.18 1644.22,638.561 1666.59,640.412 1688.96,670.329 1711.34,718.883 1733.71,770.323 1756.08,806.566 1778.45,812.628 1800.83,781.92 1823.2,719.533 1845.57,641.895 1867.94,376.794 1890.32,376.794 1912.69,376.794 1935.06,376.794 1957.43,376.794 1979.81,376.794 2002.18,376.794 2024.55,376.794 2046.92,1248.62 2069.3,183.055 2091.67,86.1857 2114.04,1151.75 2136.41,376.794 2158.79,376.794 2181.16,376.794 2203.53,376.794 2225.9,376.794 2248.28,376.794 2270.65,376.794 2293.02,376.794 "/>
<circle clip-path="url(#clip602)" cx="301.869" cy="1132.38" r="7.2" fill="#009af9" fill-rule="evenodd" fill-opacity="1" stroke="none"/>
<circle clip-path="url(#clip602)" cx="324.242" cy="1093.63" r="7.2" fill="#009af9" fill-rule="evenodd" fill-opacity="1" stroke="none"/>
<circle clip-path="url(#clip602)" cx="346.614" cy="1054.88" r="7.2" fill="#009af9" fill-rule="evenodd" fill-opacity="1" stroke="none"/>
<circle clip-path="url(#clip602)" cx="368.987" cy="1016.13" r="7.2" fill="#009af9" fill-rule="evenodd" fill-opacity="1" stroke="none"/>
<circle clip-path="url(#clip602)" cx="391.359" cy="977.386" r="7.2" fill="#009af9" fill-rule="evenodd" fill-opacity="1" stroke="none"/>
<circle clip-path="url(#clip602)" cx="413.732" cy="938.638" r="7.2" fill="#009af9" fill-rule="evenodd" fill-opacity="1" stroke="none"/>
<circle clip-path="url(#clip602)" cx="436.104" cy="899.89" r="7.2" fill="#009af9" fill-rule="evenodd" fill-opacity="1" stroke="none"/>
<circle clip-path="url(#clip602)" cx="458.477" cy="861.142" r="7.2" fill="#009af9" fill-rule="evenodd" fill-opacity="1" stroke="none"/>
<circle clip-path="url(#clip602)" cx="480.849" cy="822.395" r="7.2" fill="#009af9" fill-rule="evenodd" fill-opacity="1" stroke="none"/>
<circle clip-path="url(#clip602)" cx="503.222" cy="783.647" r="7.2" fill="#009af9" fill-rule="evenodd" fill-opacity="1" stroke="none"/>
<circle clip-path="url(#clip602)" cx="525.594" cy="744.899" r="7.2" fill="#009af9" fill-rule="evenodd" fill-opacity="1" stroke="none"/>
<circle clip-path="url(#clip602)" cx="547.967" cy="1345.49" r="7.2" fill="#009af9" fill-rule="evenodd" fill-opacity="1" stroke="none"/>
<circle clip-path="url(#clip602)" cx="570.339" cy="667.403" r="7.2" fill="#009af9" fill-rule="evenodd" fill-opacity="1" stroke="none"/>
<circle clip-path="url(#clip602)" cx="592.712" cy="628.655" r="7.2" fill="#009af9" fill-rule="evenodd" fill-opacity="1" stroke="none"/>
<circle clip-path="url(#clip602)" cx="615.084" cy="589.908" r="7.2" fill="#009af9" fill-rule="evenodd" fill-opacity="1" stroke="none"/>
<circle clip-path="url(#clip602)" cx="637.457" cy="551.16" r="7.2" fill="#009af9" fill-rule="evenodd" fill-opacity="1" stroke="none"/>
<circle clip-path="url(#clip602)" cx="659.829" cy="512.412" r="7.2" fill="#009af9" fill-rule="evenodd" fill-opacity="1" stroke="none"/>
<circle clip-path="url(#clip602)" cx="682.202" cy="473.664" r="7.2" fill="#009af9" fill-rule="evenodd" fill-opacity="1" stroke="none"/>
<circle clip-path="url(#clip602)" cx="704.574" cy="434.916" r="7.2" fill="#009af9" fill-rule="evenodd" fill-opacity="1" stroke="none"/>
<circle clip-path="url(#clip602)" cx="726.947" cy="396.168" r="7.2" fill="#009af9" fill-rule="evenodd" fill-opacity="1" stroke="none"/>
<circle clip-path="url(#clip602)" cx="749.319" cy="1026.46" r="7.2" fill="#009af9" fill-rule="evenodd" fill-opacity="1" stroke="none"/>
<circle clip-path="url(#clip602)" cx="771.692" cy="1018.94" r="7.2" fill="#009af9" fill-rule="evenodd" fill-opacity="1" stroke="none"/>
<circle clip-path="url(#clip602)" cx="794.064" cy="1013.3" r="7.2" fill="#009af9" fill-rule="evenodd" fill-opacity="1" stroke="none"/>
<circle clip-path="url(#clip602)" cx="816.437" cy="1009.9" r="7.2" fill="#009af9" fill-rule="evenodd" fill-opacity="1" stroke="none"/>
<circle clip-path="url(#clip602)" cx="838.809" cy="1009.05" r="7.2" fill="#009af9" fill-rule="evenodd" fill-opacity="1" stroke="none"/>
<circle clip-path="url(#clip602)" cx="861.182" cy="1010.99" r="7.2" fill="#009af9" fill-rule="evenodd" fill-opacity="1" stroke="none"/>
<circle clip-path="url(#clip602)" cx="883.554" cy="1015.85" r="7.2" fill="#009af9" fill-rule="evenodd" fill-opacity="1" stroke="none"/>
<circle clip-path="url(#clip602)" cx="905.927" cy="1023.61" r="7.2" fill="#009af9" fill-rule="evenodd" fill-opacity="1" stroke="none"/>
<circle clip-path="url(#clip602)" cx="928.299" cy="1034.03" r="7.2" fill="#009af9" fill-rule="evenodd" fill-opacity="1" stroke="none"/>
<circle clip-path="url(#clip602)" cx="950.672" cy="1046.66" r="7.2" fill="#009af9" fill-rule="evenodd" fill-opacity="1" stroke="none"/>
<circle clip-path="url(#clip602)" cx="973.044" cy="1060.75" r="7.2" fill="#009af9" fill-rule="evenodd" fill-opacity="1" stroke="none"/>
<circle clip-path="url(#clip602)" cx="995.417" cy="1075.28" r="7.2" fill="#009af9" fill-rule="evenodd" fill-opacity="1" stroke="none"/>
<circle clip-path="url(#clip602)" cx="1017.79" cy="1088.96" r="7.2" fill="#009af9" fill-rule="evenodd" fill-opacity="1" stroke="none"/>
<circle clip-path="url(#clip602)" cx="1040.16" cy="1100.26" r="7.2" fill="#009af9" fill-rule="evenodd" fill-opacity="1" stroke="none"/>
<circle clip-path="url(#clip602)" cx="1062.53" cy="1107.52" r="7.2" fill="#009af9" fill-rule="evenodd" fill-opacity="1" stroke="none"/>
<circle clip-path="url(#clip602)" cx="1084.91" cy="1109.05" r="7.2" fill="#009af9" fill-rule="evenodd" fill-opacity="1" stroke="none"/>
<circle clip-path="url(#clip602)" cx="1107.28" cy="1103.32" r="7.2" fill="#009af9" fill-rule="evenodd" fill-opacity="1" stroke="none"/>
<circle clip-path="url(#clip602)" cx="1129.65" cy="1089.15" r="7.2" fill="#009af9" fill-rule="evenodd" fill-opacity="1" stroke="none"/>
<circle clip-path="url(#clip602)" cx="1152.02" cy="1065.98" r="7.2" fill="#009af9" fill-rule="evenodd" fill-opacity="1" stroke="none"/>
<circle clip-path="url(#clip602)" cx="1174.4" cy="1033.99" r="7.2" fill="#009af9" fill-rule="evenodd" fill-opacity="1" stroke="none"/>
<circle clip-path="url(#clip602)" cx="1196.77" cy="994.382" r="7.2" fill="#009af9" fill-rule="evenodd" fill-opacity="1" stroke="none"/>
<circle clip-path="url(#clip602)" cx="1219.14" cy="949.362" r="7.2" fill="#009af9" fill-rule="evenodd" fill-opacity="1" stroke="none"/>
<circle clip-path="url(#clip602)" cx="1241.51" cy="902.155" r="7.2" fill="#009af9" fill-rule="evenodd" fill-opacity="1" stroke="none"/>
<circle clip-path="url(#clip602)" cx="1263.89" cy="856.769" r="7.2" fill="#009af9" fill-rule="evenodd" fill-opacity="1" stroke="none"/>
<circle clip-path="url(#clip602)" cx="1286.26" cy="817.617" r="7.2" fill="#009af9" fill-rule="evenodd" fill-opacity="1" stroke="none"/>
<circle clip-path="url(#clip602)" cx="1308.63" cy="788.949" r="7.2" fill="#009af9" fill-rule="evenodd" fill-opacity="1" stroke="none"/>
<circle clip-path="url(#clip602)" cx="1331" cy="774.182" r="7.2" fill="#009af9" fill-rule="evenodd" fill-opacity="1" stroke="none"/>
<circle clip-path="url(#clip602)" cx="1353.38" cy="775.188" r="7.2" fill="#009af9" fill-rule="evenodd" fill-opacity="1" stroke="none"/>
<circle clip-path="url(#clip602)" cx="1375.75" cy="791.68" r="7.2" fill="#009af9" fill-rule="evenodd" fill-opacity="1" stroke="none"/>
<circle clip-path="url(#clip602)" cx="1398.12" cy="1384.24" r="7.2" fill="#009af9" fill-rule="evenodd" fill-opacity="1" stroke="none"/>
<circle clip-path="url(#clip602)" cx="1420.49" cy="1384.24" r="7.2" fill="#009af9" fill-rule="evenodd" fill-opacity="1" stroke="none"/>
<circle clip-path="url(#clip602)" cx="1442.87" cy="1384.24" r="7.2" fill="#009af9" fill-rule="evenodd" fill-opacity="1" stroke="none"/>
<circle clip-path="url(#clip602)" cx="1465.24" cy="922.486" r="7.2" fill="#009af9" fill-rule="evenodd" fill-opacity="1" stroke="none"/>
<circle clip-path="url(#clip602)" cx="1487.61" cy="935.173" r="7.2" fill="#009af9" fill-rule="evenodd" fill-opacity="1" stroke="none"/>
<circle clip-path="url(#clip602)" cx="1509.98" cy="926.629" r="7.2" fill="#009af9" fill-rule="evenodd" fill-opacity="1" stroke="none"/>
<circle clip-path="url(#clip602)" cx="1532.36" cy="895.192" r="7.2" fill="#009af9" fill-rule="evenodd" fill-opacity="1" stroke="none"/>
<circle clip-path="url(#clip602)" cx="1554.73" cy="843.956" r="7.2" fill="#009af9" fill-rule="evenodd" fill-opacity="1" stroke="none"/>
<circle clip-path="url(#clip602)" cx="1577.1" cy="780.808" r="7.2" fill="#009af9" fill-rule="evenodd" fill-opacity="1" stroke="none"/>
<circle clip-path="url(#clip602)" cx="1599.47" cy="717.271" r="7.2" fill="#009af9" fill-rule="evenodd" fill-opacity="1" stroke="none"/>
<circle clip-path="url(#clip602)" cx="1621.85" cy="666.18" r="7.2" fill="#009af9" fill-rule="evenodd" fill-opacity="1" stroke="none"/>
<circle clip-path="url(#clip602)" cx="1644.22" cy="638.561" r="7.2" fill="#009af9" fill-rule="evenodd" fill-opacity="1" stroke="none"/>
<circle clip-path="url(#clip602)" cx="1666.59" cy="640.412" r="7.2" fill="#009af9" fill-rule="evenodd" fill-opacity="1" stroke="none"/>
<circle clip-path="url(#clip602)" cx="1688.96" cy="670.329" r="7.2" fill="#009af9" fill-rule="evenodd" fill-opacity="1" stroke="none"/>
<circle clip-path="url(#clip602)" cx="1711.34" cy="718.883" r="7.2" fill="#009af9" fill-rule="evenodd" fill-opacity="1" stroke="none"/>
<circle clip-path="url(#clip602)" cx="1733.71" cy="770.323" r="7.2" fill="#009af9" fill-rule="evenodd" fill-opacity="1" stroke="none"/>
<circle clip-path="url(#clip602)" cx="1756.08" cy="806.566" r="7.2" fill="#009af9" fill-rule="evenodd" fill-opacity="1" stroke="none"/>
<circle clip-path="url(#clip602)" cx="1778.45" cy="812.628" r="7.2" fill="#009af9" fill-rule="evenodd" fill-opacity="1" stroke="none"/>
<circle clip-path="url(#clip602)" cx="1800.83" cy="781.92" r="7.2" fill="#009af9" fill-rule="evenodd" fill-opacity="1" stroke="none"/>
<circle clip-path="url(#clip602)" cx="1823.2" cy="719.533" r="7.2" fill="#009af9" fill-rule="evenodd" fill-opacity="1" stroke="none"/>
<circle clip-path="url(#clip602)" cx="1845.57" cy="641.895" r="7.2" fill="#009af9" fill-rule="evenodd" fill-opacity="1" stroke="none"/>
<circle clip-path="url(#clip602)" cx="1867.94" cy="376.794" r="7.2" fill="#009af9" fill-rule="evenodd" fill-opacity="1" stroke="none"/>
<circle clip-path="url(#clip602)" cx="1890.32" cy="376.794" r="7.2" fill="#009af9" fill-rule="evenodd" fill-opacity="1" stroke="none"/>
<circle clip-path="url(#clip602)" cx="1912.69" cy="376.794" r="7.2" fill="#009af9" fill-rule="evenodd" fill-opacity="1" stroke="none"/>
<circle clip-path="url(#clip602)" cx="1935.06" cy="376.794" r="7.2" fill="#009af9" fill-rule="evenodd" fill-opacity="1" stroke="none"/>
<circle clip-path="url(#clip602)" cx="1957.43" cy="376.794" r="7.2" fill="#009af9" fill-rule="evenodd" fill-opacity="1" stroke="none"/>
<circle clip-path="url(#clip602)" cx="1979.81" cy="376.794" r="7.2" fill="#009af9" fill-rule="evenodd" fill-opacity="1" stroke="none"/>
<circle clip-path="url(#clip602)" cx="2002.18" cy="376.794" r="7.2" fill="#009af9" fill-rule="evenodd" fill-opacity="1" stroke="none"/>
<circle clip-path="url(#clip602)" cx="2024.55" cy="376.794" r="7.2" fill="#009af9" fill-rule="evenodd" fill-opacity="1" stroke="none"/>
<circle clip-path="url(#clip602)" cx="2046.92" cy="1248.62" r="7.2" fill="#009af9" fill-rule="evenodd" fill-opacity="1" stroke="none"/>
<circle clip-path="url(#clip602)" cx="2069.3" cy="183.055" r="7.2" fill="#009af9" fill-rule="evenodd" fill-opacity="1" stroke="none"/>
<circle clip-path="url(#clip602)" cx="2091.67" cy="86.1857" r="7.2" fill="#009af9" fill-rule="evenodd" fill-opacity="1" stroke="none"/>
<circle clip-path="url(#clip602)" cx="2114.04" cy="1151.75" r="7.2" fill="#009af9" fill-rule="evenodd" fill-opacity="1" stroke="none"/>
<circle clip-path="url(#clip602)" cx="2136.41" cy="376.794" r="7.2" fill="#009af9" fill-rule="evenodd" fill-opacity="1" stroke="none"/>
<circle clip-path="url(#clip602)" cx="2158.79" cy="376.794" r="7.2" fill="#009af9" fill-rule="evenodd" fill-opacity="1" stroke="none"/>
<circle clip-path="url(#clip602)" cx="2181.16" cy="376.794" r="7.2" fill="#009af9" fill-rule="evenodd" fill-opacity="1" stroke="none"/>
<circle clip-path="url(#clip602)" cx="2203.53" cy="376.794" r="7.2" fill="#009af9" fill-rule="evenodd" fill-opacity="1" stroke="none"/>
<circle clip-path="url(#clip602)" cx="2225.9" cy="376.794" r="7.2" fill="#009af9" fill-rule="evenodd" fill-opacity="1" stroke="none"/>
<circle clip-path="url(#clip602)" cx="2248.28" cy="376.794" r="7.2" fill="#009af9" fill-rule="evenodd" fill-opacity="1" stroke="none"/>
<circle clip-path="url(#clip602)" cx="2270.65" cy="376.794" r="7.2" fill="#009af9" fill-rule="evenodd" fill-opacity="1" stroke="none"/>
<circle clip-path="url(#clip602)" cx="2293.02" cy="376.794" r="7.2" fill="#009af9" fill-rule="evenodd" fill-opacity="1" stroke="none"/>
<circle clip-path="url(#clip602)" cx="301.869" cy="1054.88" r="7.2" fill="#e26f46" fill-rule="evenodd" fill-opacity="1" stroke="#000000" stroke-opacity="1" stroke-width="3.2"/>
<circle clip-path="url(#clip602)" cx="324.242" cy="1035.51" r="7.2" fill="#e26f46" fill-rule="evenodd" fill-opacity="1" stroke="#000000" stroke-opacity="1" stroke-width="3.2"/>
<circle clip-path="url(#clip602)" cx="346.614" cy="1016.13" r="7.2" fill="#e26f46" fill-rule="evenodd" fill-opacity="1" stroke="#000000" stroke-opacity="1" stroke-width="3.2"/>
<circle clip-path="url(#clip602)" cx="368.987" cy="996.76" r="7.2" fill="#e26f46" fill-rule="evenodd" fill-opacity="1" stroke="#000000" stroke-opacity="1" stroke-width="3.2"/>
<circle clip-path="url(#clip602)" cx="391.359" cy="977.386" r="7.2" fill="#e26f46" fill-rule="evenodd" fill-opacity="1" stroke="#000000" stroke-opacity="1" stroke-width="3.2"/>
<circle clip-path="url(#clip602)" cx="413.732" cy="938.638" r="7.2" fill="#e26f46" fill-rule="evenodd" fill-opacity="1" stroke="#000000" stroke-opacity="1" stroke-width="3.2"/>
<circle clip-path="url(#clip602)" cx="436.104" cy="899.89" r="7.2" fill="#e26f46" fill-rule="evenodd" fill-opacity="1" stroke="#000000" stroke-opacity="1" stroke-width="3.2"/>
<circle clip-path="url(#clip602)" cx="458.477" cy="899.89" r="7.2" fill="#e26f46" fill-rule="evenodd" fill-opacity="1" stroke="#000000" stroke-opacity="1" stroke-width="3.2"/>
<circle clip-path="url(#clip602)" cx="480.849" cy="861.142" r="7.2" fill="#e26f46" fill-rule="evenodd" fill-opacity="1" stroke="#000000" stroke-opacity="1" stroke-width="3.2"/>
<circle clip-path="url(#clip602)" cx="503.222" cy="822.395" r="7.2" fill="#e26f46" fill-rule="evenodd" fill-opacity="1" stroke="#000000" stroke-opacity="1" stroke-width="3.2"/>
<circle clip-path="url(#clip602)" cx="525.594" cy="783.647" r="7.2" fill="#e26f46" fill-rule="evenodd" fill-opacity="1" stroke="#000000" stroke-opacity="1" stroke-width="3.2"/>
<circle clip-path="url(#clip602)" cx="547.967" cy="744.899" r="7.2" fill="#e26f46" fill-rule="evenodd" fill-opacity="1" stroke="#000000" stroke-opacity="1" stroke-width="3.2"/>
<circle clip-path="url(#clip602)" cx="570.339" cy="667.403" r="7.2" fill="#e26f46" fill-rule="evenodd" fill-opacity="1" stroke="#000000" stroke-opacity="1" stroke-width="3.2"/>
<circle clip-path="url(#clip602)" cx="592.712" cy="628.655" r="7.2" fill="#e26f46" fill-rule="evenodd" fill-opacity="1" stroke="#000000" stroke-opacity="1" stroke-width="3.2"/>
<circle clip-path="url(#clip602)" cx="615.084" cy="589.908" r="7.2" fill="#e26f46" fill-rule="evenodd" fill-opacity="1" stroke="#000000" stroke-opacity="1" stroke-width="3.2"/>
<circle clip-path="url(#clip602)" cx="637.457" cy="551.16" r="7.2" fill="#e26f46" fill-rule="evenodd" fill-opacity="1" stroke="#000000" stroke-opacity="1" stroke-width="3.2"/>
<circle clip-path="url(#clip602)" cx="659.829" cy="551.16" r="7.2" fill="#e26f46" fill-rule="evenodd" fill-opacity="1" stroke="#000000" stroke-opacity="1" stroke-width="3.2"/>
<circle clip-path="url(#clip602)" cx="682.202" cy="551.16" r="7.2" fill="#e26f46" fill-rule="evenodd" fill-opacity="1" stroke="#000000" stroke-opacity="1" stroke-width="3.2"/>
<circle clip-path="url(#clip602)" cx="704.574" cy="551.16" r="7.2" fill="#e26f46" fill-rule="evenodd" fill-opacity="1" stroke="#000000" stroke-opacity="1" stroke-width="3.2"/>
<circle clip-path="url(#clip602)" cx="726.947" cy="551.16" r="7.2" fill="#e26f46" fill-rule="evenodd" fill-opacity="1" stroke="#000000" stroke-opacity="1" stroke-width="3.2"/>
<circle clip-path="url(#clip602)" cx="749.319" cy="1009.05" r="7.2" fill="#e26f46" fill-rule="evenodd" fill-opacity="1" stroke="#000000" stroke-opacity="1" stroke-width="3.2"/>
<circle clip-path="url(#clip602)" cx="771.692" cy="1009.9" r="7.2" fill="#e26f46" fill-rule="evenodd" fill-opacity="1" stroke="#000000" stroke-opacity="1" stroke-width="3.2"/>
<circle clip-path="url(#clip602)" cx="794.064" cy="1010.99" r="7.2" fill="#e26f46" fill-rule="evenodd" fill-opacity="1" stroke="#000000" stroke-opacity="1" stroke-width="3.2"/>
<circle clip-path="url(#clip602)" cx="816.437" cy="1013.3" r="7.2" fill="#e26f46" fill-rule="evenodd" fill-opacity="1" stroke="#000000" stroke-opacity="1" stroke-width="3.2"/>
<circle clip-path="url(#clip602)" cx="838.809" cy="1015.85" r="7.2" fill="#e26f46" fill-rule="evenodd" fill-opacity="1" stroke="#000000" stroke-opacity="1" stroke-width="3.2"/>
<circle clip-path="url(#clip602)" cx="861.182" cy="1015.85" r="7.2" fill="#e26f46" fill-rule="evenodd" fill-opacity="1" stroke="#000000" stroke-opacity="1" stroke-width="3.2"/>
<circle clip-path="url(#clip602)" cx="883.554" cy="1015.85" r="7.2" fill="#e26f46" fill-rule="evenodd" fill-opacity="1" stroke="#000000" stroke-opacity="1" stroke-width="3.2"/>
<circle clip-path="url(#clip602)" cx="905.927" cy="1023.61" r="7.2" fill="#e26f46" fill-rule="evenodd" fill-opacity="1" stroke="#000000" stroke-opacity="1" stroke-width="3.2"/>
<circle clip-path="url(#clip602)" cx="928.299" cy="1034.03" r="7.2" fill="#e26f46" fill-rule="evenodd" fill-opacity="1" stroke="#000000" stroke-opacity="1" stroke-width="3.2"/>
<circle clip-path="url(#clip602)" cx="950.672" cy="1046.66" r="7.2" fill="#e26f46" fill-rule="evenodd" fill-opacity="1" stroke="#000000" stroke-opacity="1" stroke-width="3.2"/>
<circle clip-path="url(#clip602)" cx="973.044" cy="1060.75" r="7.2" fill="#e26f46" fill-rule="evenodd" fill-opacity="1" stroke="#000000" stroke-opacity="1" stroke-width="3.2"/>
<circle clip-path="url(#clip602)" cx="995.417" cy="1075.28" r="7.2" fill="#e26f46" fill-rule="evenodd" fill-opacity="1" stroke="#000000" stroke-opacity="1" stroke-width="3.2"/>
<circle clip-path="url(#clip602)" cx="1017.79" cy="1088.96" r="7.2" fill="#e26f46" fill-rule="evenodd" fill-opacity="1" stroke="#000000" stroke-opacity="1" stroke-width="3.2"/>
<circle clip-path="url(#clip602)" cx="1040.16" cy="1089.15" r="7.2" fill="#e26f46" fill-rule="evenodd" fill-opacity="1" stroke="#000000" stroke-opacity="1" stroke-width="3.2"/>
<circle clip-path="url(#clip602)" cx="1062.53" cy="1089.15" r="7.2" fill="#e26f46" fill-rule="evenodd" fill-opacity="1" stroke="#000000" stroke-opacity="1" stroke-width="3.2"/>
<circle clip-path="url(#clip602)" cx="1084.91" cy="1089.15" r="7.2" fill="#e26f46" fill-rule="evenodd" fill-opacity="1" stroke="#000000" stroke-opacity="1" stroke-width="3.2"/>
<circle clip-path="url(#clip602)" cx="1107.28" cy="1089.15" r="7.2" fill="#e26f46" fill-rule="evenodd" fill-opacity="1" stroke="#000000" stroke-opacity="1" stroke-width="3.2"/>
<circle clip-path="url(#clip602)" cx="1129.65" cy="1089.15" r="7.2" fill="#e26f46" fill-rule="evenodd" fill-opacity="1" stroke="#000000" stroke-opacity="1" stroke-width="3.2"/>
<circle clip-path="url(#clip602)" cx="1152.02" cy="1065.98" r="7.2" fill="#e26f46" fill-rule="evenodd" fill-opacity="1" stroke="#000000" stroke-opacity="1" stroke-width="3.2"/>
<circle clip-path="url(#clip602)" cx="1174.4" cy="1033.99" r="7.2" fill="#e26f46" fill-rule="evenodd" fill-opacity="1" stroke="#000000" stroke-opacity="1" stroke-width="3.2"/>
<circle clip-path="url(#clip602)" cx="1196.77" cy="994.382" r="7.2" fill="#e26f46" fill-rule="evenodd" fill-opacity="1" stroke="#000000" stroke-opacity="1" stroke-width="3.2"/>
<circle clip-path="url(#clip602)" cx="1219.14" cy="949.362" r="7.2" fill="#e26f46" fill-rule="evenodd" fill-opacity="1" stroke="#000000" stroke-opacity="1" stroke-width="3.2"/>
<circle clip-path="url(#clip602)" cx="1241.51" cy="902.155" r="7.2" fill="#e26f46" fill-rule="evenodd" fill-opacity="1" stroke="#000000" stroke-opacity="1" stroke-width="3.2"/>
<circle clip-path="url(#clip602)" cx="1263.89" cy="856.769" r="7.2" fill="#e26f46" fill-rule="evenodd" fill-opacity="1" stroke="#000000" stroke-opacity="1" stroke-width="3.2"/>
<circle clip-path="url(#clip602)" cx="1286.26" cy="817.617" r="7.2" fill="#e26f46" fill-rule="evenodd" fill-opacity="1" stroke="#000000" stroke-opacity="1" stroke-width="3.2"/>
<circle clip-path="url(#clip602)" cx="1308.63" cy="817.617" r="7.2" fill="#e26f46" fill-rule="evenodd" fill-opacity="1" stroke="#000000" stroke-opacity="1" stroke-width="3.2"/>
<circle clip-path="url(#clip602)" cx="1331" cy="817.617" r="7.2" fill="#e26f46" fill-rule="evenodd" fill-opacity="1" stroke="#000000" stroke-opacity="1" stroke-width="3.2"/>
<circle clip-path="url(#clip602)" cx="1353.38" cy="817.617" r="7.2" fill="#e26f46" fill-rule="evenodd" fill-opacity="1" stroke="#000000" stroke-opacity="1" stroke-width="3.2"/>
<circle clip-path="url(#clip602)" cx="1375.75" cy="817.617" r="7.2" fill="#e26f46" fill-rule="evenodd" fill-opacity="1" stroke="#000000" stroke-opacity="1" stroke-width="3.2"/>
<circle clip-path="url(#clip602)" cx="1398.12" cy="922.486" r="7.2" fill="#e26f46" fill-rule="evenodd" fill-opacity="1" stroke="#000000" stroke-opacity="1" stroke-width="3.2"/>
<circle clip-path="url(#clip602)" cx="1420.49" cy="926.629" r="7.2" fill="#e26f46" fill-rule="evenodd" fill-opacity="1" stroke="#000000" stroke-opacity="1" stroke-width="3.2"/>
<circle clip-path="url(#clip602)" cx="1442.87" cy="926.629" r="7.2" fill="#e26f46" fill-rule="evenodd" fill-opacity="1" stroke="#000000" stroke-opacity="1" stroke-width="3.2"/>
<circle clip-path="url(#clip602)" cx="1465.24" cy="926.629" r="7.2" fill="#e26f46" fill-rule="evenodd" fill-opacity="1" stroke="#000000" stroke-opacity="1" stroke-width="3.2"/>
<circle clip-path="url(#clip602)" cx="1487.61" cy="926.629" r="7.2" fill="#e26f46" fill-rule="evenodd" fill-opacity="1" stroke="#000000" stroke-opacity="1" stroke-width="3.2"/>
<circle clip-path="url(#clip602)" cx="1509.98" cy="922.486" r="7.2" fill="#e26f46" fill-rule="evenodd" fill-opacity="1" stroke="#000000" stroke-opacity="1" stroke-width="3.2"/>
<circle clip-path="url(#clip602)" cx="1532.36" cy="895.192" r="7.2" fill="#e26f46" fill-rule="evenodd" fill-opacity="1" stroke="#000000" stroke-opacity="1" stroke-width="3.2"/>
<circle clip-path="url(#clip602)" cx="1554.73" cy="843.956" r="7.2" fill="#e26f46" fill-rule="evenodd" fill-opacity="1" stroke="#000000" stroke-opacity="1" stroke-width="3.2"/>
<circle clip-path="url(#clip602)" cx="1577.1" cy="780.808" r="7.2" fill="#e26f46" fill-rule="evenodd" fill-opacity="1" stroke="#000000" stroke-opacity="1" stroke-width="3.2"/>
<circle clip-path="url(#clip602)" cx="1599.47" cy="717.271" r="7.2" fill="#e26f46" fill-rule="evenodd" fill-opacity="1" stroke="#000000" stroke-opacity="1" stroke-width="3.2"/>
<circle clip-path="url(#clip602)" cx="1621.85" cy="717.271" r="7.2" fill="#e26f46" fill-rule="evenodd" fill-opacity="1" stroke="#000000" stroke-opacity="1" stroke-width="3.2"/>
<circle clip-path="url(#clip602)" cx="1644.22" cy="717.271" r="7.2" fill="#e26f46" fill-rule="evenodd" fill-opacity="1" stroke="#000000" stroke-opacity="1" stroke-width="3.2"/>
<circle clip-path="url(#clip602)" cx="1666.59" cy="717.271" r="7.2" fill="#e26f46" fill-rule="evenodd" fill-opacity="1" stroke="#000000" stroke-opacity="1" stroke-width="3.2"/>
<circle clip-path="url(#clip602)" cx="1688.96" cy="717.271" r="7.2" fill="#e26f46" fill-rule="evenodd" fill-opacity="1" stroke="#000000" stroke-opacity="1" stroke-width="3.2"/>
<circle clip-path="url(#clip602)" cx="1711.34" cy="718.883" r="7.2" fill="#e26f46" fill-rule="evenodd" fill-opacity="1" stroke="#000000" stroke-opacity="1" stroke-width="3.2"/>
<circle clip-path="url(#clip602)" cx="1733.71" cy="719.533" r="7.2" fill="#e26f46" fill-rule="evenodd" fill-opacity="1" stroke="#000000" stroke-opacity="1" stroke-width="3.2"/>
<circle clip-path="url(#clip602)" cx="1756.08" cy="719.533" r="7.2" fill="#e26f46" fill-rule="evenodd" fill-opacity="1" stroke="#000000" stroke-opacity="1" stroke-width="3.2"/>
<circle clip-path="url(#clip602)" cx="1778.45" cy="719.533" r="7.2" fill="#e26f46" fill-rule="evenodd" fill-opacity="1" stroke="#000000" stroke-opacity="1" stroke-width="3.2"/>
<circle clip-path="url(#clip602)" cx="1800.83" cy="719.533" r="7.2" fill="#e26f46" fill-rule="evenodd" fill-opacity="1" stroke="#000000" stroke-opacity="1" stroke-width="3.2"/>
<circle clip-path="url(#clip602)" cx="1823.2" cy="719.533" r="7.2" fill="#e26f46" fill-rule="evenodd" fill-opacity="1" stroke="#000000" stroke-opacity="1" stroke-width="3.2"/>
<circle clip-path="url(#clip602)" cx="1845.57" cy="641.895" r="7.2" fill="#e26f46" fill-rule="evenodd" fill-opacity="1" stroke="#000000" stroke-opacity="1" stroke-width="3.2"/>
<circle clip-path="url(#clip602)" cx="1867.94" cy="376.794" r="7.2" fill="#e26f46" fill-rule="evenodd" fill-opacity="1" stroke="#000000" stroke-opacity="1" stroke-width="3.2"/>
<circle clip-path="url(#clip602)" cx="1890.32" cy="376.794" r="7.2" fill="#e26f46" fill-rule="evenodd" fill-opacity="1" stroke="#000000" stroke-opacity="1" stroke-width="3.2"/>
<circle clip-path="url(#clip602)" cx="1912.69" cy="376.794" r="7.2" fill="#e26f46" fill-rule="evenodd" fill-opacity="1" stroke="#000000" stroke-opacity="1" stroke-width="3.2"/>
<circle clip-path="url(#clip602)" cx="1935.06" cy="376.794" r="7.2" fill="#e26f46" fill-rule="evenodd" fill-opacity="1" stroke="#000000" stroke-opacity="1" stroke-width="3.2"/>
<circle clip-path="url(#clip602)" cx="1957.43" cy="376.794" r="7.2" fill="#e26f46" fill-rule="evenodd" fill-opacity="1" stroke="#000000" stroke-opacity="1" stroke-width="3.2"/>
<circle clip-path="url(#clip602)" cx="1979.81" cy="376.794" r="7.2" fill="#e26f46" fill-rule="evenodd" fill-opacity="1" stroke="#000000" stroke-opacity="1" stroke-width="3.2"/>
<circle clip-path="url(#clip602)" cx="2002.18" cy="376.794" r="7.2" fill="#e26f46" fill-rule="evenodd" fill-opacity="1" stroke="#000000" stroke-opacity="1" stroke-width="3.2"/>
<circle clip-path="url(#clip602)" cx="2024.55" cy="376.794" r="7.2" fill="#e26f46" fill-rule="evenodd" fill-opacity="1" stroke="#000000" stroke-opacity="1" stroke-width="3.2"/>
<circle clip-path="url(#clip602)" cx="2046.92" cy="376.794" r="7.2" fill="#e26f46" fill-rule="evenodd" fill-opacity="1" stroke="#000000" stroke-opacity="1" stroke-width="3.2"/>
<circle clip-path="url(#clip602)" cx="2069.3" cy="376.794" r="7.2" fill="#e26f46" fill-rule="evenodd" fill-opacity="1" stroke="#000000" stroke-opacity="1" stroke-width="3.2"/>
<circle clip-path="url(#clip602)" cx="2091.67" cy="376.794" r="7.2" fill="#e26f46" fill-rule="evenodd" fill-opacity="1" stroke="#000000" stroke-opacity="1" stroke-width="3.2"/>
<circle clip-path="url(#clip602)" cx="2114.04" cy="376.794" r="7.2" fill="#e26f46" fill-rule="evenodd" fill-opacity="1" stroke="#000000" stroke-opacity="1" stroke-width="3.2"/>
<circle clip-path="url(#clip602)" cx="2136.41" cy="376.794" r="7.2" fill="#e26f46" fill-rule="evenodd" fill-opacity="1" stroke="#000000" stroke-opacity="1" stroke-width="3.2"/>
<circle clip-path="url(#clip602)" cx="2158.79" cy="376.794" r="7.2" fill="#e26f46" fill-rule="evenodd" fill-opacity="1" stroke="#000000" stroke-opacity="1" stroke-width="3.2"/>
<circle clip-path="url(#clip602)" cx="2181.16" cy="376.794" r="7.2" fill="#e26f46" fill-rule="evenodd" fill-opacity="1" stroke="#000000" stroke-opacity="1" stroke-width="3.2"/>
<circle clip-path="url(#clip602)" cx="2203.53" cy="376.794" r="7.2" fill="#e26f46" fill-rule="evenodd" fill-opacity="1" stroke="#000000" stroke-opacity="1" stroke-width="3.2"/>
<circle clip-path="url(#clip602)" cx="2225.9" cy="376.794" r="7.2" fill="#e26f46" fill-rule="evenodd" fill-opacity="1" stroke="#000000" stroke-opacity="1" stroke-width="3.2"/>
<circle clip-path="url(#clip602)" cx="2248.28" cy="376.794" r="7.2" fill="#e26f46" fill-rule="evenodd" fill-opacity="1" stroke="#000000" stroke-opacity="1" stroke-width="3.2"/>
<circle clip-path="url(#clip602)" cx="2270.65" cy="376.794" r="7.2" fill="#e26f46" fill-rule="evenodd" fill-opacity="1" stroke="#000000" stroke-opacity="1" stroke-width="3.2"/>
<circle clip-path="url(#clip602)" cx="2293.02" cy="376.794" r="7.2" fill="#e26f46" fill-rule="evenodd" fill-opacity="1" stroke="#000000" stroke-opacity="1" stroke-width="3.2"/>
<circle clip-path="url(#clip602)" cx="301.869" cy="1132.38" r="7.2" fill="#3da44d" fill-rule="evenodd" fill-opacity="1" stroke="#000000" stroke-opacity="1" stroke-width="3.2"/>
<circle clip-path="url(#clip602)" cx="324.242" cy="1093.63" r="7.2" fill="#3da44d" fill-rule="evenodd" fill-opacity="1" stroke="#000000" stroke-opacity="1" stroke-width="3.2"/>
<circle clip-path="url(#clip602)" cx="346.614" cy="1054.88" r="7.2" fill="#3da44d" fill-rule="evenodd" fill-opacity="1" stroke="#000000" stroke-opacity="1" stroke-width="3.2"/>
<circle clip-path="url(#clip602)" cx="368.987" cy="1016.13" r="7.2" fill="#3da44d" fill-rule="evenodd" fill-opacity="1" stroke="#000000" stroke-opacity="1" stroke-width="3.2"/>
<circle clip-path="url(#clip602)" cx="391.359" cy="977.386" r="7.2" fill="#3da44d" fill-rule="evenodd" fill-opacity="1" stroke="#000000" stroke-opacity="1" stroke-width="3.2"/>
<circle clip-path="url(#clip602)" cx="413.732" cy="938.638" r="7.2" fill="#3da44d" fill-rule="evenodd" fill-opacity="1" stroke="#000000" stroke-opacity="1" stroke-width="3.2"/>
<circle clip-path="url(#clip602)" cx="436.104" cy="899.89" r="7.2" fill="#3da44d" fill-rule="evenodd" fill-opacity="1" stroke="#000000" stroke-opacity="1" stroke-width="3.2"/>
<circle clip-path="url(#clip602)" cx="458.477" cy="861.142" r="7.2" fill="#3da44d" fill-rule="evenodd" fill-opacity="1" stroke="#000000" stroke-opacity="1" stroke-width="3.2"/>
<circle clip-path="url(#clip602)" cx="480.849" cy="822.395" r="7.2" fill="#3da44d" fill-rule="evenodd" fill-opacity="1" stroke="#000000" stroke-opacity="1" stroke-width="3.2"/>
<circle clip-path="url(#clip602)" cx="503.222" cy="783.647" r="7.2" fill="#3da44d" fill-rule="evenodd" fill-opacity="1" stroke="#000000" stroke-opacity="1" stroke-width="3.2"/>
<circle clip-path="url(#clip602)" cx="525.594" cy="744.899" r="7.2" fill="#3da44d" fill-rule="evenodd" fill-opacity="1" stroke="#000000" stroke-opacity="1" stroke-width="3.2"/>
<circle clip-path="url(#clip602)" cx="547.967" cy="744.899" r="7.2" fill="#3da44d" fill-rule="evenodd" fill-opacity="1" stroke="#000000" stroke-opacity="1" stroke-width="3.2"/>
<circle clip-path="url(#clip602)" cx="570.339" cy="667.403" r="7.2" fill="#3da44d" fill-rule="evenodd" fill-opacity="1" stroke="#000000" stroke-opacity="1" stroke-width="3.2"/>
<circle clip-path="url(#clip602)" cx="592.712" cy="628.655" r="7.2" fill="#3da44d" fill-rule="evenodd" fill-opacity="1" stroke="#000000" stroke-opacity="1" stroke-width="3.2"/>
<circle clip-path="url(#clip602)" cx="615.084" cy="589.908" r="7.2" fill="#3da44d" fill-rule="evenodd" fill-opacity="1" stroke="#000000" stroke-opacity="1" stroke-width="3.2"/>
<circle clip-path="url(#clip602)" cx="637.457" cy="551.16" r="7.2" fill="#3da44d" fill-rule="evenodd" fill-opacity="1" stroke="#000000" stroke-opacity="1" stroke-width="3.2"/>
<circle clip-path="url(#clip602)" cx="659.829" cy="512.412" r="7.2" fill="#3da44d" fill-rule="evenodd" fill-opacity="1" stroke="#000000" stroke-opacity="1" stroke-width="3.2"/>
<circle clip-path="url(#clip602)" cx="682.202" cy="473.664" r="7.2" fill="#3da44d" fill-rule="evenodd" fill-opacity="1" stroke="#000000" stroke-opacity="1" stroke-width="3.2"/>
<circle clip-path="url(#clip602)" cx="704.574" cy="434.916" r="7.2" fill="#3da44d" fill-rule="evenodd" fill-opacity="1" stroke="#000000" stroke-opacity="1" stroke-width="3.2"/>
<circle clip-path="url(#clip602)" cx="726.947" cy="396.168" r="7.2" fill="#3da44d" fill-rule="evenodd" fill-opacity="1" stroke="#000000" stroke-opacity="1" stroke-width="3.2"/>
<circle clip-path="url(#clip602)" cx="749.319" cy="1026.46" r="7.2" fill="#3da44d" fill-rule="evenodd" fill-opacity="1" stroke="#000000" stroke-opacity="1" stroke-width="3.2"/>
<circle clip-path="url(#clip602)" cx="771.692" cy="1018.94" r="7.2" fill="#3da44d" fill-rule="evenodd" fill-opacity="1" stroke="#000000" stroke-opacity="1" stroke-width="3.2"/>
<circle clip-path="url(#clip602)" cx="794.064" cy="1013.3" r="7.2" fill="#3da44d" fill-rule="evenodd" fill-opacity="1" stroke="#000000" stroke-opacity="1" stroke-width="3.2"/>
<circle clip-path="url(#clip602)" cx="816.437" cy="1009.9" r="7.2" fill="#3da44d" fill-rule="evenodd" fill-opacity="1" stroke="#000000" stroke-opacity="1" stroke-width="3.2"/>
<circle clip-path="url(#clip602)" cx="838.809" cy="1009.05" r="7.2" fill="#3da44d" fill-rule="evenodd" fill-opacity="1" stroke="#000000" stroke-opacity="1" stroke-width="3.2"/>
<circle clip-path="url(#clip602)" cx="861.182" cy="1010.99" r="7.2" fill="#3da44d" fill-rule="evenodd" fill-opacity="1" stroke="#000000" stroke-opacity="1" stroke-width="3.2"/>
<circle clip-path="url(#clip602)" cx="883.554" cy="1015.85" r="7.2" fill="#3da44d" fill-rule="evenodd" fill-opacity="1" stroke="#000000" stroke-opacity="1" stroke-width="3.2"/>
<circle clip-path="url(#clip602)" cx="905.927" cy="1023.61" r="7.2" fill="#3da44d" fill-rule="evenodd" fill-opacity="1" stroke="#000000" stroke-opacity="1" stroke-width="3.2"/>
<circle clip-path="url(#clip602)" cx="928.299" cy="1034.03" r="7.2" fill="#3da44d" fill-rule="evenodd" fill-opacity="1" stroke="#000000" stroke-opacity="1" stroke-width="3.2"/>
<circle clip-path="url(#clip602)" cx="950.672" cy="1046.66" r="7.2" fill="#3da44d" fill-rule="evenodd" fill-opacity="1" stroke="#000000" stroke-opacity="1" stroke-width="3.2"/>
<circle clip-path="url(#clip602)" cx="973.044" cy="1060.75" r="7.2" fill="#3da44d" fill-rule="evenodd" fill-opacity="1" stroke="#000000" stroke-opacity="1" stroke-width="3.2"/>
<circle clip-path="url(#clip602)" cx="995.417" cy="1075.28" r="7.2" fill="#3da44d" fill-rule="evenodd" fill-opacity="1" stroke="#000000" stroke-opacity="1" stroke-width="3.2"/>
<circle clip-path="url(#clip602)" cx="1017.79" cy="1088.96" r="7.2" fill="#3da44d" fill-rule="evenodd" fill-opacity="1" stroke="#000000" stroke-opacity="1" stroke-width="3.2"/>
<circle clip-path="url(#clip602)" cx="1040.16" cy="1100.26" r="7.2" fill="#3da44d" fill-rule="evenodd" fill-opacity="1" stroke="#000000" stroke-opacity="1" stroke-width="3.2"/>
<circle clip-path="url(#clip602)" cx="1062.53" cy="1107.52" r="7.2" fill="#3da44d" fill-rule="evenodd" fill-opacity="1" stroke="#000000" stroke-opacity="1" stroke-width="3.2"/>
<circle clip-path="url(#clip602)" cx="1084.91" cy="1109.05" r="7.2" fill="#3da44d" fill-rule="evenodd" fill-opacity="1" stroke="#000000" stroke-opacity="1" stroke-width="3.2"/>
<circle clip-path="url(#clip602)" cx="1107.28" cy="1103.32" r="7.2" fill="#3da44d" fill-rule="evenodd" fill-opacity="1" stroke="#000000" stroke-opacity="1" stroke-width="3.2"/>
<circle clip-path="url(#clip602)" cx="1129.65" cy="1089.15" r="7.2" fill="#3da44d" fill-rule="evenodd" fill-opacity="1" stroke="#000000" stroke-opacity="1" stroke-width="3.2"/>
<circle clip-path="url(#clip602)" cx="1152.02" cy="1065.98" r="7.2" fill="#3da44d" fill-rule="evenodd" fill-opacity="1" stroke="#000000" stroke-opacity="1" stroke-width="3.2"/>
<circle clip-path="url(#clip602)" cx="1174.4" cy="1033.99" r="7.2" fill="#3da44d" fill-rule="evenodd" fill-opacity="1" stroke="#000000" stroke-opacity="1" stroke-width="3.2"/>
<circle clip-path="url(#clip602)" cx="1196.77" cy="994.382" r="7.2" fill="#3da44d" fill-rule="evenodd" fill-opacity="1" stroke="#000000" stroke-opacity="1" stroke-width="3.2"/>
<circle clip-path="url(#clip602)" cx="1219.14" cy="949.362" r="7.2" fill="#3da44d" fill-rule="evenodd" fill-opacity="1" stroke="#000000" stroke-opacity="1" stroke-width="3.2"/>
<circle clip-path="url(#clip602)" cx="1241.51" cy="902.155" r="7.2" fill="#3da44d" fill-rule="evenodd" fill-opacity="1" stroke="#000000" stroke-opacity="1" stroke-width="3.2"/>
<circle clip-path="url(#clip602)" cx="1263.89" cy="856.769" r="7.2" fill="#3da44d" fill-rule="evenodd" fill-opacity="1" stroke="#000000" stroke-opacity="1" stroke-width="3.2"/>
<circle clip-path="url(#clip602)" cx="1286.26" cy="817.617" r="7.2" fill="#3da44d" fill-rule="evenodd" fill-opacity="1" stroke="#000000" stroke-opacity="1" stroke-width="3.2"/>
<circle clip-path="url(#clip602)" cx="1308.63" cy="788.949" r="7.2" fill="#3da44d" fill-rule="evenodd" fill-opacity="1" stroke="#000000" stroke-opacity="1" stroke-width="3.2"/>
<circle clip-path="url(#clip602)" cx="1331" cy="774.182" r="7.2" fill="#3da44d" fill-rule="evenodd" fill-opacity="1" stroke="#000000" stroke-opacity="1" stroke-width="3.2"/>
<circle clip-path="url(#clip602)" cx="1353.38" cy="775.188" r="7.2" fill="#3da44d" fill-rule="evenodd" fill-opacity="1" stroke="#000000" stroke-opacity="1" stroke-width="3.2"/>
<circle clip-path="url(#clip602)" cx="1375.75" cy="791.68" r="7.2" fill="#3da44d" fill-rule="evenodd" fill-opacity="1" stroke="#000000" stroke-opacity="1" stroke-width="3.2"/>
<circle clip-path="url(#clip602)" cx="1398.12" cy="922.486" r="7.2" fill="#3da44d" fill-rule="evenodd" fill-opacity="1" stroke="#000000" stroke-opacity="1" stroke-width="3.2"/>
<circle clip-path="url(#clip602)" cx="1420.49" cy="926.629" r="7.2" fill="#3da44d" fill-rule="evenodd" fill-opacity="1" stroke="#000000" stroke-opacity="1" stroke-width="3.2"/>
<circle clip-path="url(#clip602)" cx="1442.87" cy="926.629" r="7.2" fill="#3da44d" fill-rule="evenodd" fill-opacity="1" stroke="#000000" stroke-opacity="1" stroke-width="3.2"/>
<circle clip-path="url(#clip602)" cx="1465.24" cy="922.486" r="7.2" fill="#3da44d" fill-rule="evenodd" fill-opacity="1" stroke="#000000" stroke-opacity="1" stroke-width="3.2"/>
<circle clip-path="url(#clip602)" cx="1487.61" cy="935.173" r="7.2" fill="#3da44d" fill-rule="evenodd" fill-opacity="1" stroke="#000000" stroke-opacity="1" stroke-width="3.2"/>
<circle clip-path="url(#clip602)" cx="1509.98" cy="926.629" r="7.2" fill="#3da44d" fill-rule="evenodd" fill-opacity="1" stroke="#000000" stroke-opacity="1" stroke-width="3.2"/>
<circle clip-path="url(#clip602)" cx="1532.36" cy="895.192" r="7.2" fill="#3da44d" fill-rule="evenodd" fill-opacity="1" stroke="#000000" stroke-opacity="1" stroke-width="3.2"/>
<circle clip-path="url(#clip602)" cx="1554.73" cy="843.956" r="7.2" fill="#3da44d" fill-rule="evenodd" fill-opacity="1" stroke="#000000" stroke-opacity="1" stroke-width="3.2"/>
<circle clip-path="url(#clip602)" cx="1577.1" cy="780.808" r="7.2" fill="#3da44d" fill-rule="evenodd" fill-opacity="1" stroke="#000000" stroke-opacity="1" stroke-width="3.2"/>
<circle clip-path="url(#clip602)" cx="1599.47" cy="717.271" r="7.2" fill="#3da44d" fill-rule="evenodd" fill-opacity="1" stroke="#000000" stroke-opacity="1" stroke-width="3.2"/>
<circle clip-path="url(#clip602)" cx="1621.85" cy="666.18" r="7.2" fill="#3da44d" fill-rule="evenodd" fill-opacity="1" stroke="#000000" stroke-opacity="1" stroke-width="3.2"/>
<circle clip-path="url(#clip602)" cx="1644.22" cy="638.561" r="7.2" fill="#3da44d" fill-rule="evenodd" fill-opacity="1" stroke="#000000" stroke-opacity="1" stroke-width="3.2"/>
<circle clip-path="url(#clip602)" cx="1666.59" cy="640.412" r="7.2" fill="#3da44d" fill-rule="evenodd" fill-opacity="1" stroke="#000000" stroke-opacity="1" stroke-width="3.2"/>
<circle clip-path="url(#clip602)" cx="1688.96" cy="670.329" r="7.2" fill="#3da44d" fill-rule="evenodd" fill-opacity="1" stroke="#000000" stroke-opacity="1" stroke-width="3.2"/>
<circle clip-path="url(#clip602)" cx="1711.34" cy="718.883" r="7.2" fill="#3da44d" fill-rule="evenodd" fill-opacity="1" stroke="#000000" stroke-opacity="1" stroke-width="3.2"/>
<circle clip-path="url(#clip602)" cx="1733.71" cy="770.323" r="7.2" fill="#3da44d" fill-rule="evenodd" fill-opacity="1" stroke="#000000" stroke-opacity="1" stroke-width="3.2"/>
<circle clip-path="url(#clip602)" cx="1756.08" cy="806.566" r="7.2" fill="#3da44d" fill-rule="evenodd" fill-opacity="1" stroke="#000000" stroke-opacity="1" stroke-width="3.2"/>
<circle clip-path="url(#clip602)" cx="1778.45" cy="812.628" r="7.2" fill="#3da44d" fill-rule="evenodd" fill-opacity="1" stroke="#000000" stroke-opacity="1" stroke-width="3.2"/>
<circle clip-path="url(#clip602)" cx="1800.83" cy="781.92" r="7.2" fill="#3da44d" fill-rule="evenodd" fill-opacity="1" stroke="#000000" stroke-opacity="1" stroke-width="3.2"/>
<circle clip-path="url(#clip602)" cx="1823.2" cy="719.533" r="7.2" fill="#3da44d" fill-rule="evenodd" fill-opacity="1" stroke="#000000" stroke-opacity="1" stroke-width="3.2"/>
<circle clip-path="url(#clip602)" cx="1845.57" cy="641.895" r="7.2" fill="#3da44d" fill-rule="evenodd" fill-opacity="1" stroke="#000000" stroke-opacity="1" stroke-width="3.2"/>
<circle clip-path="url(#clip602)" cx="1867.94" cy="376.794" r="7.2" fill="#3da44d" fill-rule="evenodd" fill-opacity="1" stroke="#000000" stroke-opacity="1" stroke-width="3.2"/>
<circle clip-path="url(#clip602)" cx="1890.32" cy="376.794" r="7.2" fill="#3da44d" fill-rule="evenodd" fill-opacity="1" stroke="#000000" stroke-opacity="1" stroke-width="3.2"/>
<circle clip-path="url(#clip602)" cx="1912.69" cy="376.794" r="7.2" fill="#3da44d" fill-rule="evenodd" fill-opacity="1" stroke="#000000" stroke-opacity="1" stroke-width="3.2"/>
<circle clip-path="url(#clip602)" cx="1935.06" cy="376.794" r="7.2" fill="#3da44d" fill-rule="evenodd" fill-opacity="1" stroke="#000000" stroke-opacity="1" stroke-width="3.2"/>
<circle clip-path="url(#clip602)" cx="1957.43" cy="376.794" r="7.2" fill="#3da44d" fill-rule="evenodd" fill-opacity="1" stroke="#000000" stroke-opacity="1" stroke-width="3.2"/>
<circle clip-path="url(#clip602)" cx="1979.81" cy="376.794" r="7.2" fill="#3da44d" fill-rule="evenodd" fill-opacity="1" stroke="#000000" stroke-opacity="1" stroke-width="3.2"/>
<circle clip-path="url(#clip602)" cx="2002.18" cy="376.794" r="7.2" fill="#3da44d" fill-rule="evenodd" fill-opacity="1" stroke="#000000" stroke-opacity="1" stroke-width="3.2"/>
<circle clip-path="url(#clip602)" cx="2024.55" cy="376.794" r="7.2" fill="#3da44d" fill-rule="evenodd" fill-opacity="1" stroke="#000000" stroke-opacity="1" stroke-width="3.2"/>
<circle clip-path="url(#clip602)" cx="2046.92" cy="376.794" r="7.2" fill="#3da44d" fill-rule="evenodd" fill-opacity="1" stroke="#000000" stroke-opacity="1" stroke-width="3.2"/>
<circle clip-path="url(#clip602)" cx="2069.3" cy="376.794" r="7.2" fill="#3da44d" fill-rule="evenodd" fill-opacity="1" stroke="#000000" stroke-opacity="1" stroke-width="3.2"/>
<circle clip-path="url(#clip602)" cx="2091.67" cy="376.794" r="7.2" fill="#3da44d" fill-rule="evenodd" fill-opacity="1" stroke="#000000" stroke-opacity="1" stroke-width="3.2"/>
<circle clip-path="url(#clip602)" cx="2114.04" cy="376.794" r="7.2" fill="#3da44d" fill-rule="evenodd" fill-opacity="1" stroke="#000000" stroke-opacity="1" stroke-width="3.2"/>
<circle clip-path="url(#clip602)" cx="2136.41" cy="376.794" r="7.2" fill="#3da44d" fill-rule="evenodd" fill-opacity="1" stroke="#000000" stroke-opacity="1" stroke-width="3.2"/>
<circle clip-path="url(#clip602)" cx="2158.79" cy="376.794" r="7.2" fill="#3da44d" fill-rule="evenodd" fill-opacity="1" stroke="#000000" stroke-opacity="1" stroke-width="3.2"/>
<circle clip-path="url(#clip602)" cx="2181.16" cy="376.794" r="7.2" fill="#3da44d" fill-rule="evenodd" fill-opacity="1" stroke="#000000" stroke-opacity="1" stroke-width="3.2"/>
<circle clip-path="url(#clip602)" cx="2203.53" cy="376.794" r="7.2" fill="#3da44d" fill-rule="evenodd" fill-opacity="1" stroke="#000000" stroke-opacity="1" stroke-width="3.2"/>
<circle clip-path="url(#clip602)" cx="2225.9" cy="376.794" r="7.2" fill="#3da44d" fill-rule="evenodd" fill-opacity="1" stroke="#000000" stroke-opacity="1" stroke-width="3.2"/>
<circle clip-path="url(#clip602)" cx="2248.28" cy="376.794" r="7.2" fill="#3da44d" fill-rule="evenodd" fill-opacity="1" stroke="#000000" stroke-opacity="1" stroke-width="3.2"/>
<circle clip-path="url(#clip602)" cx="2270.65" cy="376.794" r="7.2" fill="#3da44d" fill-rule="evenodd" fill-opacity="1" stroke="#000000" stroke-opacity="1" stroke-width="3.2"/>
<circle clip-path="url(#clip602)" cx="2293.02" cy="376.794" r="7.2" fill="#3da44d" fill-rule="evenodd" fill-opacity="1" stroke="#000000" stroke-opacity="1" stroke-width="3.2"/>
<path clip-path="url(#clip600)" d="M312.489 300.469 L827.554 300.469 L827.554 93.1086 L312.489 93.1086  Z" fill="#ffffff" fill-rule="evenodd" fill-opacity="1"/>
<polyline clip-path="url(#clip600)" style="stroke:#000000; stroke-linecap:round; stroke-linejoin:round; stroke-width:4; stroke-opacity:1; fill:none" points="312.489,300.469 827.554,300.469 827.554,93.1086 312.489,93.1086 312.489,300.469 "/>
<polyline clip-path="url(#clip600)" style="stroke:#009af9; stroke-linecap:round; stroke-linejoin:round; stroke-width:4; stroke-opacity:1; fill:none" points="335.94,144.949 476.648,144.949 "/>
<circle clip-path="url(#clip600)" cx="406.294" cy="144.949" r="19.5428" fill="#009af9" fill-rule="evenodd" fill-opacity="1" stroke="none"/>
<path clip-path="url(#clip600)" d="M516.118 130.84 Q511.025 130.84 508.016 134.636 Q505.03 138.432 505.03 144.983 Q505.03 151.511 508.016 155.307 Q511.025 159.104 516.118 159.104 Q521.21 159.104 524.173 155.307 Q527.16 151.511 527.16 144.983 Q527.16 138.432 524.173 134.636 Q521.21 130.84 516.118 130.84 M516.118 127.044 Q523.386 127.044 527.738 131.928 Q532.09 136.789 532.09 144.983 Q532.09 153.155 527.738 158.039 Q523.386 162.9 516.118 162.9 Q508.826 162.9 504.451 158.039 Q500.099 153.178 500.099 144.983 Q500.099 136.789 504.451 131.928 Q508.826 127.044 516.118 127.044 Z" fill="#000000" fill-rule="nonzero" fill-opacity="1" /><path clip-path="url(#clip600)" d="M554.243 140.284 Q553.525 139.868 552.669 139.682 Q551.835 139.474 550.817 139.474 Q547.206 139.474 545.261 141.835 Q543.34 144.173 543.34 148.571 L543.34 162.229 L539.058 162.229 L539.058 136.303 L543.34 136.303 L543.34 140.331 Q544.683 137.969 546.835 136.835 Q548.988 135.678 552.067 135.678 Q552.507 135.678 553.039 135.747 Q553.571 135.794 554.22 135.909 L554.243 140.284 Z" fill="#000000" fill-rule="nonzero" fill-opacity="1" /><path clip-path="url(#clip600)" d="M558.71 136.303 L562.97 136.303 L562.97 162.229 L558.71 162.229 L558.71 136.303 M558.71 126.21 L562.97 126.21 L562.97 131.604 L558.71 131.604 L558.71 126.21 Z" fill="#000000" fill-rule="nonzero" fill-opacity="1" /><path clip-path="url(#clip600)" d="M588.942 148.965 Q588.942 144.335 587.02 141.789 Q585.122 139.243 581.673 139.243 Q578.247 139.243 576.326 141.789 Q574.428 144.335 574.428 148.965 Q574.428 153.571 576.326 156.118 Q578.247 158.664 581.673 158.664 Q585.122 158.664 587.02 156.118 Q588.942 153.571 588.942 148.965 M593.201 159.011 Q593.201 165.631 590.261 168.849 Q587.321 172.09 581.256 172.09 Q579.011 172.09 577.02 171.742 Q575.03 171.418 573.155 170.724 L573.155 166.58 Q575.03 167.599 576.858 168.085 Q578.687 168.571 580.585 168.571 Q584.775 168.571 586.858 166.372 Q588.942 164.196 588.942 159.775 L588.942 157.668 Q587.622 159.96 585.562 161.094 Q583.502 162.229 580.631 162.229 Q575.863 162.229 572.946 158.594 Q570.03 154.96 570.03 148.965 Q570.03 142.946 572.946 139.312 Q575.863 135.678 580.631 135.678 Q583.502 135.678 585.562 136.812 Q587.622 137.946 588.942 140.238 L588.942 136.303 L593.201 136.303 L593.201 159.011 Z" fill="#000000" fill-rule="nonzero" fill-opacity="1" /><path clip-path="url(#clip600)" d="M601.974 136.303 L606.233 136.303 L606.233 162.229 L601.974 162.229 L601.974 136.303 M601.974 126.21 L606.233 126.21 L606.233 131.604 L601.974 131.604 L601.974 126.21 Z" fill="#000000" fill-rule="nonzero" fill-opacity="1" /><path clip-path="url(#clip600)" d="M636.696 146.581 L636.696 162.229 L632.437 162.229 L632.437 146.719 Q632.437 143.039 631.002 141.21 Q629.566 139.382 626.696 139.382 Q623.247 139.382 621.256 141.581 Q619.266 143.78 619.266 147.576 L619.266 162.229 L614.983 162.229 L614.983 136.303 L619.266 136.303 L619.266 140.331 Q620.793 137.993 622.853 136.835 Q624.937 135.678 627.645 135.678 Q632.113 135.678 634.404 138.456 Q636.696 141.21 636.696 146.581 Z" fill="#000000" fill-rule="nonzero" fill-opacity="1" /><path clip-path="url(#clip600)" d="M656.974 149.196 Q651.812 149.196 649.821 150.377 Q647.83 151.557 647.83 154.405 Q647.83 156.673 649.312 158.016 Q650.816 159.335 653.386 159.335 Q656.927 159.335 659.057 156.835 Q661.21 154.312 661.21 150.145 L661.21 149.196 L656.974 149.196 M665.469 147.437 L665.469 162.229 L661.21 162.229 L661.21 158.293 Q659.751 160.655 657.575 161.789 Q655.4 162.9 652.251 162.9 Q648.27 162.9 645.909 160.678 Q643.571 158.432 643.571 154.682 Q643.571 150.307 646.488 148.085 Q649.427 145.863 655.238 145.863 L661.21 145.863 L661.21 145.446 Q661.21 142.507 659.265 140.909 Q657.344 139.289 653.849 139.289 Q651.626 139.289 649.52 139.821 Q647.414 140.354 645.469 141.419 L645.469 137.483 Q647.807 136.581 650.006 136.141 Q652.205 135.678 654.288 135.678 Q659.913 135.678 662.691 138.594 Q665.469 141.511 665.469 147.437 Z" fill="#000000" fill-rule="nonzero" fill-opacity="1" /><path clip-path="url(#clip600)" d="M674.242 126.21 L678.501 126.21 L678.501 162.229 L674.242 162.229 L674.242 126.21 Z" fill="#000000" fill-rule="nonzero" fill-opacity="1" /><circle clip-path="url(#clip600)" cx="406.294" cy="196.789" r="18.432" fill="#e26f46" fill-rule="evenodd" fill-opacity="1" stroke="#000000" stroke-opacity="1" stroke-width="8.192"/>
<path clip-path="url(#clip600)" d="M500.099 179.509 L507.067 179.509 L515.886 203.027 L524.752 179.509 L531.72 179.509 L531.72 214.069 L527.16 214.069 L527.16 183.722 L518.248 207.425 L513.548 207.425 L504.636 183.722 L504.636 214.069 L500.099 214.069 L500.099 179.509 Z" fill="#000000" fill-rule="nonzero" fill-opacity="1" /><path clip-path="url(#clip600)" d="M562.993 200.041 L562.993 202.124 L543.409 202.124 Q543.687 206.522 546.048 208.837 Q548.433 211.129 552.669 211.129 Q555.122 211.129 557.414 210.527 Q559.729 209.925 561.997 208.721 L561.997 212.749 Q559.706 213.721 557.298 214.231 Q554.891 214.74 552.414 214.74 Q546.21 214.74 542.576 211.129 Q538.965 207.518 538.965 201.36 Q538.965 194.995 542.391 191.268 Q545.84 187.518 551.673 187.518 Q556.905 187.518 559.937 190.897 Q562.993 194.254 562.993 200.041 M558.733 198.791 Q558.687 195.296 556.766 193.212 Q554.868 191.129 551.72 191.129 Q548.155 191.129 546.002 193.143 Q543.872 195.157 543.548 198.814 L558.733 198.791 Z" fill="#000000" fill-rule="nonzero" fill-opacity="1" /><path clip-path="url(#clip600)" d="M587.043 192.078 L587.043 178.05 L591.303 178.05 L591.303 214.069 L587.043 214.069 L587.043 210.18 Q585.701 212.495 583.641 213.629 Q581.604 214.74 578.733 214.74 Q574.034 214.74 571.071 210.99 Q568.132 207.24 568.132 201.129 Q568.132 195.018 571.071 191.268 Q574.034 187.518 578.733 187.518 Q581.604 187.518 583.641 188.652 Q585.701 189.763 587.043 192.078 M572.53 201.129 Q572.53 205.828 574.451 208.513 Q576.395 211.175 579.775 211.175 Q583.155 211.175 585.099 208.513 Q587.043 205.828 587.043 201.129 Q587.043 196.43 585.099 193.768 Q583.155 191.083 579.775 191.083 Q576.395 191.083 574.451 193.768 Q572.53 196.43 572.53 201.129 Z" fill="#000000" fill-rule="nonzero" fill-opacity="1" /><path clip-path="url(#clip600)" d="M600.076 188.143 L604.335 188.143 L604.335 214.069 L600.076 214.069 L600.076 188.143 M600.076 178.05 L604.335 178.05 L604.335 183.444 L600.076 183.444 L600.076 178.05 Z" fill="#000000" fill-rule="nonzero" fill-opacity="1" /><path clip-path="url(#clip600)" d="M625.029 201.036 Q619.867 201.036 617.877 202.217 Q615.886 203.397 615.886 206.245 Q615.886 208.513 617.367 209.856 Q618.872 211.175 621.441 211.175 Q624.983 211.175 627.113 208.675 Q629.265 206.152 629.265 201.985 L629.265 201.036 L625.029 201.036 M633.525 199.277 L633.525 214.069 L629.265 214.069 L629.265 210.133 Q627.807 212.495 625.631 213.629 Q623.455 214.74 620.307 214.74 Q616.326 214.74 613.965 212.518 Q611.627 210.272 611.627 206.522 Q611.627 202.147 614.543 199.925 Q617.483 197.703 623.293 197.703 L629.265 197.703 L629.265 197.286 Q629.265 194.347 627.321 192.749 Q625.4 191.129 621.904 191.129 Q619.682 191.129 617.576 191.661 Q615.469 192.194 613.525 193.259 L613.525 189.323 Q615.863 188.421 618.062 187.981 Q620.261 187.518 622.344 187.518 Q627.969 187.518 630.747 190.434 Q633.525 193.351 633.525 199.277 Z" fill="#000000" fill-rule="nonzero" fill-opacity="1" /><path clip-path="url(#clip600)" d="M663.849 198.421 L663.849 214.069 L659.589 214.069 L659.589 198.559 Q659.589 194.879 658.154 193.05 Q656.719 191.222 653.849 191.222 Q650.4 191.222 648.409 193.421 Q646.418 195.62 646.418 199.416 L646.418 214.069 L642.136 214.069 L642.136 188.143 L646.418 188.143 L646.418 192.171 Q647.946 189.833 650.006 188.675 Q652.089 187.518 654.798 187.518 Q659.265 187.518 661.557 190.296 Q663.849 193.05 663.849 198.421 Z" fill="#000000" fill-rule="nonzero" fill-opacity="1" /><path clip-path="url(#clip600)" d="M700.538 178.05 L700.538 181.592 L696.464 181.592 Q694.173 181.592 693.27 182.518 Q692.39 183.444 692.39 185.851 L692.39 188.143 L699.404 188.143 L699.404 191.453 L692.39 191.453 L692.39 214.069 L688.108 214.069 L688.108 191.453 L684.034 191.453 L684.034 188.143 L688.108 188.143 L688.108 186.337 Q688.108 182.009 690.122 180.041 Q692.135 178.05 696.51 178.05 L700.538 178.05 Z" fill="#000000" fill-rule="nonzero" fill-opacity="1" /><path clip-path="url(#clip600)" d="M704.103 188.143 L708.362 188.143 L708.362 214.069 L704.103 214.069 L704.103 188.143 M704.103 178.05 L708.362 178.05 L708.362 183.444 L704.103 183.444 L704.103 178.05 Z" fill="#000000" fill-rule="nonzero" fill-opacity="1" /><path clip-path="url(#clip600)" d="M717.274 178.05 L721.533 178.05 L721.533 214.069 L717.274 214.069 L717.274 178.05 Z" fill="#000000" fill-rule="nonzero" fill-opacity="1" /><path clip-path="url(#clip600)" d="M734.658 180.782 L734.658 188.143 L743.432 188.143 L743.432 191.453 L734.658 191.453 L734.658 205.527 Q734.658 208.698 735.515 209.601 Q736.395 210.504 739.057 210.504 L743.432 210.504 L743.432 214.069 L739.057 214.069 Q734.126 214.069 732.251 212.24 Q730.376 210.388 730.376 205.527 L730.376 191.453 L727.251 191.453 L727.251 188.143 L730.376 188.143 L730.376 180.782 L734.658 180.782 Z" fill="#000000" fill-rule="nonzero" fill-opacity="1" /><path clip-path="url(#clip600)" d="M771.209 200.041 L771.209 202.124 L751.626 202.124 Q751.904 206.522 754.265 208.837 Q756.649 211.129 760.885 211.129 Q763.339 211.129 765.63 210.527 Q767.945 209.925 770.214 208.721 L770.214 212.749 Q767.922 213.721 765.515 214.231 Q763.107 214.74 760.63 214.74 Q754.427 214.74 750.793 211.129 Q747.181 207.518 747.181 201.36 Q747.181 194.995 750.607 191.268 Q754.056 187.518 759.89 187.518 Q765.121 187.518 768.154 190.897 Q771.209 194.254 771.209 200.041 M766.95 198.791 Q766.904 195.296 764.982 193.212 Q763.084 191.129 759.936 191.129 Q756.371 191.129 754.218 193.143 Q752.089 195.157 751.765 198.814 L766.95 198.791 Z" fill="#000000" fill-rule="nonzero" fill-opacity="1" /><path clip-path="url(#clip600)" d="M793.223 192.124 Q792.505 191.708 791.649 191.522 Q790.816 191.314 789.797 191.314 Q786.186 191.314 784.241 193.675 Q782.32 196.013 782.32 200.411 L782.32 214.069 L778.038 214.069 L778.038 188.143 L782.32 188.143 L782.32 192.171 Q783.663 189.809 785.816 188.675 Q787.968 187.518 791.047 187.518 Q791.487 187.518 792.019 187.587 Q792.552 187.634 793.2 187.749 L793.223 192.124 Z" fill="#000000" fill-rule="nonzero" fill-opacity="1" /><circle clip-path="url(#clip600)" cx="406.294" cy="248.629" r="18.432" fill="#3da44d" fill-rule="evenodd" fill-opacity="1" stroke="#000000" stroke-opacity="1" stroke-width="8.192"/>
<path clip-path="url(#clip600)" d="M500.099 231.349 L504.775 231.349 L504.775 245.515 L521.766 245.515 L521.766 231.349 L526.442 231.349 L526.442 265.909 L521.766 265.909 L521.766 249.45 L504.775 249.45 L504.775 265.909 L500.099 265.909 L500.099 231.349 Z" fill="#000000" fill-rule="nonzero" fill-opacity="1" /><path clip-path="url(#clip600)" d="M547.345 252.876 Q542.183 252.876 540.192 254.057 Q538.201 255.237 538.201 258.085 Q538.201 260.353 539.683 261.696 Q541.187 263.015 543.757 263.015 Q547.298 263.015 549.428 260.515 Q551.581 257.992 551.581 253.825 L551.581 252.876 L547.345 252.876 M555.84 251.117 L555.84 265.909 L551.581 265.909 L551.581 261.973 Q550.122 264.335 547.946 265.469 Q545.771 266.58 542.622 266.58 Q538.641 266.58 536.28 264.358 Q533.942 262.112 533.942 258.362 Q533.942 253.987 536.859 251.765 Q539.798 249.543 545.608 249.543 L551.581 249.543 L551.581 249.126 Q551.581 246.187 549.636 244.589 Q547.715 242.969 544.22 242.969 Q541.997 242.969 539.891 243.501 Q537.784 244.034 535.84 245.099 L535.84 241.163 Q538.178 240.261 540.377 239.821 Q542.576 239.358 544.659 239.358 Q550.284 239.358 553.062 242.274 Q555.84 245.191 555.84 251.117 Z" fill="#000000" fill-rule="nonzero" fill-opacity="1" /><path clip-path="url(#clip600)" d="M584.798 244.96 Q586.395 242.089 588.618 240.724 Q590.84 239.358 593.849 239.358 Q597.9 239.358 600.099 242.205 Q602.298 245.029 602.298 250.261 L602.298 265.909 L598.016 265.909 L598.016 250.399 Q598.016 246.673 596.696 244.867 Q595.377 243.062 592.668 243.062 Q589.358 243.062 587.437 245.261 Q585.516 247.46 585.516 251.256 L585.516 265.909 L581.233 265.909 L581.233 250.399 Q581.233 246.649 579.914 244.867 Q578.594 243.062 575.84 243.062 Q572.576 243.062 570.655 245.284 Q568.733 247.483 568.733 251.256 L568.733 265.909 L564.451 265.909 L564.451 239.983 L568.733 239.983 L568.733 244.011 Q570.192 241.626 572.229 240.492 Q574.266 239.358 577.067 239.358 Q579.891 239.358 581.858 240.793 Q583.849 242.228 584.798 244.96 Z" fill="#000000" fill-rule="nonzero" fill-opacity="1" /><path clip-path="url(#clip600)" d="M614.914 262.02 L614.914 275.77 L610.631 275.77 L610.631 239.983 L614.914 239.983 L614.914 243.918 Q616.256 241.603 618.293 240.492 Q620.353 239.358 623.201 239.358 Q627.923 239.358 630.863 243.108 Q633.826 246.858 633.826 252.969 Q633.826 259.08 630.863 262.83 Q627.923 266.58 623.201 266.58 Q620.353 266.58 618.293 265.469 Q616.256 264.335 614.914 262.02 M629.404 252.969 Q629.404 248.27 627.46 245.608 Q625.539 242.923 622.159 242.923 Q618.779 242.923 616.835 245.608 Q614.914 248.27 614.914 252.969 Q614.914 257.668 616.835 260.353 Q618.779 263.015 622.159 263.015 Q625.539 263.015 627.46 260.353 Q629.404 257.668 629.404 252.969 Z" fill="#000000" fill-rule="nonzero" fill-opacity="1" /><path clip-path="url(#clip600)" d="M663.062 251.881 L663.062 253.964 L643.478 253.964 Q643.756 258.362 646.117 260.677 Q648.501 262.969 652.738 262.969 Q655.191 262.969 657.483 262.367 Q659.798 261.765 662.066 260.561 L662.066 264.589 Q659.775 265.561 657.367 266.071 Q654.96 266.58 652.483 266.58 Q646.279 266.58 642.645 262.969 Q639.034 259.358 639.034 253.2 Q639.034 246.835 642.46 243.108 Q645.909 239.358 651.742 239.358 Q656.974 239.358 660.006 242.737 Q663.062 246.094 663.062 251.881 M658.802 250.631 Q658.756 247.136 656.835 245.052 Q654.937 242.969 651.788 242.969 Q648.224 242.969 646.071 244.983 Q643.941 246.997 643.617 250.654 L658.802 250.631 Z" fill="#000000" fill-rule="nonzero" fill-opacity="1" /><path clip-path="url(#clip600)" d="M670.052 229.89 L674.312 229.89 L674.312 265.909 L670.052 265.909 L670.052 229.89 Z" fill="#000000" fill-rule="nonzero" fill-opacity="1" /><path clip-path="url(#clip600)" d="M711.418 229.89 L711.418 233.432 L707.344 233.432 Q705.052 233.432 704.149 234.358 Q703.27 235.284 703.27 237.691 L703.27 239.983 L710.284 239.983 L710.284 243.293 L703.27 243.293 L703.27 265.909 L698.987 265.909 L698.987 243.293 L694.913 243.293 L694.913 239.983 L698.987 239.983 L698.987 238.177 Q698.987 233.849 701.001 231.881 Q703.015 229.89 707.39 229.89 L711.418 229.89 Z" fill="#000000" fill-rule="nonzero" fill-opacity="1" /><path clip-path="url(#clip600)" d="M714.983 239.983 L719.242 239.983 L719.242 265.909 L714.983 265.909 L714.983 239.983 M714.983 229.89 L719.242 229.89 L719.242 235.284 L714.983 235.284 L714.983 229.89 Z" fill="#000000" fill-rule="nonzero" fill-opacity="1" /><path clip-path="url(#clip600)" d="M728.154 229.89 L732.413 229.89 L732.413 265.909 L728.154 265.909 L728.154 229.89 Z" fill="#000000" fill-rule="nonzero" fill-opacity="1" /><path clip-path="url(#clip600)" d="M745.538 232.622 L745.538 239.983 L754.311 239.983 L754.311 243.293 L745.538 243.293 L745.538 257.367 Q745.538 260.538 746.394 261.441 Q747.274 262.344 749.936 262.344 L754.311 262.344 L754.311 265.909 L749.936 265.909 Q745.006 265.909 743.131 264.08 Q741.256 262.228 741.256 257.367 L741.256 243.293 L738.131 243.293 L738.131 239.983 L741.256 239.983 L741.256 232.622 L745.538 232.622 Z" fill="#000000" fill-rule="nonzero" fill-opacity="1" /><path clip-path="url(#clip600)" d="M782.089 251.881 L782.089 253.964 L762.505 253.964 Q762.783 258.362 765.144 260.677 Q767.529 262.969 771.765 262.969 Q774.218 262.969 776.51 262.367 Q778.825 261.765 781.093 260.561 L781.093 264.589 Q778.802 265.561 776.394 266.071 Q773.987 266.58 771.51 266.58 Q765.306 266.58 761.672 262.969 Q758.061 259.358 758.061 253.2 Q758.061 246.835 761.487 243.108 Q764.936 239.358 770.769 239.358 Q776.001 239.358 779.033 242.737 Q782.089 246.094 782.089 251.881 M777.829 250.631 Q777.783 247.136 775.862 245.052 Q773.964 242.969 770.816 242.969 Q767.251 242.969 765.098 244.983 Q762.968 246.997 762.644 250.654 L777.829 250.631 Z" fill="#000000" fill-rule="nonzero" fill-opacity="1" /><path clip-path="url(#clip600)" d="M804.102 243.964 Q803.385 243.548 802.528 243.362 Q801.695 243.154 800.677 243.154 Q797.065 243.154 795.121 245.515 Q793.2 247.853 793.2 252.251 L793.2 265.909 L788.917 265.909 L788.917 239.983 L793.2 239.983 L793.2 244.011 Q794.542 241.649 796.695 240.515 Q798.848 239.358 801.927 239.358 Q802.366 239.358 802.899 239.427 Q803.431 239.474 804.079 239.589 L804.102 243.964 Z" fill="#000000" fill-rule="nonzero" fill-opacity="1" /></svg>
